<?xml version="1.0" encoding="UTF-8" standalone="no"?>
<!-- Generator: Adobe Illustrator 19.0.0, SVG Export Plug-In . SVG Version: 6.00 Build 0)  -->

<svg
   xmlns:dc="http://purl.org/dc/elements/1.1/"
   xmlns:cc="http://creativecommons.org/ns#"
   xmlns:rdf="http://www.w3.org/1999/02/22-rdf-syntax-ns#"
   xmlns:svg="http://www.w3.org/2000/svg"
   xmlns="http://www.w3.org/2000/svg"
   xmlns:sodipodi="http://sodipodi.sourceforge.net/DTD/sodipodi-0.dtd"
   xmlns:inkscape="http://www.inkscape.org/namespaces/inkscape"
   version="1.1"
   id="Capa_1"
   x="0px"
   y="0px"
   viewBox="0 0 20.000003 19.999955"
   xml:space="preserve"
   sodipodi:docname="close.svg"
   width="20.000002"
   height="19.999954"
   inkscape:version="0.92.3 (2405546, 2018-03-11)"><metadata
   id="metadata930"><rdf:RDF><cc:Work
       rdf:about=""><dc:format>image/svg+xml</dc:format><dc:type
         rdf:resource="http://purl.org/dc/dcmitype/StillImage" /><dc:title></dc:title></cc:Work></rdf:RDF></metadata><defs
   id="defs928" /><sodipodi:namedview
   pagecolor="#ffffff"
   bordercolor="#666666"
   borderopacity="1"
   objecttolerance="10"
   gridtolerance="10"
   guidetolerance="10"
   inkscape:pageopacity="0"
   inkscape:pageshadow="2"
   inkscape:window-width="1195"
   inkscape:window-height="810"
   id="namedview926"
   showgrid="false"
   showguides="false"
   fit-margin-top="0"
   fit-margin-left="0"
   fit-margin-right="0"
   fit-margin-bottom="0"
   inkscape:zoom="1.1"
   inkscape:cx="256.00074"
   inkscape:cy="256.00051"
   inkscape:window-x="433"
   inkscape:window-y="50"
   inkscape:window-maximized="0"
   inkscape:current-layer="Capa_1"><sodipodi:guide
     position="341.81845,195.45458"
     orientation="1,0"
     id="guide4635"
     inkscape:locked="false" /></sodipodi:namedview>
<g
   id="g893"
   transform="matrix(0.03906239,0,0,0.03906239,9.7655975e-6,-2.9296792e-5)">
	<g
   id="g891">
		<path
   d="M 284.286,256.002 506.143,34.144 c 7.811,-7.811 7.811,-20.475 0,-28.285 -7.811,-7.81 -20.475,-7.811 -28.285,0 L 256,227.717 34.143,5.859 c -7.811,-7.811 -20.475,-7.811 -28.285,0 -7.81,7.811 -7.811,20.475 0,28.285 L 227.715,256.001 5.858,477.859 c -7.811,7.811 -7.811,20.475 0,28.285 3.905,3.905 9.024,5.857 14.143,5.857 5.119,0 10.237,-1.952 14.143,-5.857 L 256,284.287 477.857,506.144 c 3.905,3.905 9.024,5.857 14.143,5.857 5.119,0 10.237,-1.952 14.143,-5.857 7.811,-7.811 7.811,-20.475 0,-28.285 z"
   id="path889"
   inkscape:connector-curvature="0" />
	</g>
</g>
<g
   id="g895"
   transform="translate(2.5e-4,-492.00105)">
</g>
<g
   id="g897"
   transform="translate(2.5e-4,-492.00105)">
</g>
<g
   id="g899"
   transform="translate(2.5e-4,-492.00105)">
</g>
<g
   id="g901"
   transform="translate(2.5e-4,-492.00105)">
</g>
<g
   id="g903"
   transform="translate(2.5e-4,-492.00105)">
</g>
<g
   id="g905"
   transform="translate(2.5e-4,-492.00105)">
</g>
<g
   id="g907"
   transform="translate(2.5e-4,-492.00105)">
</g>
<g
   id="g909"
   transform="translate(2.5e-4,-492.00105)">
</g>
<g
   id="g911"
   transform="translate(2.5e-4,-492.00105)">
</g>
<g
   id="g913"
   transform="translate(2.5e-4,-492.00105)">
</g>
<g
   id="g915"
   transform="translate(2.5e-4,-492.00105)">
</g>
<g
   id="g917"
   transform="translate(2.5e-4,-492.00105)">
</g>
<g
   id="g919"
   transform="translate(2.5e-4,-492.00105)">
</g>
<g
   id="g921"
   transform="translate(2.5e-4,-492.00105)">
</g>
<g
   id="g923"
   transform="translate(2.5e-4,-492.00105)">
</g>
</svg>