<?xml version="1.0" encoding="UTF-8" standalone="no"?>
<!-- Generator: Adobe Illustrator 16.0.0, SVG Export Plug-In . SVG Version: 6.00 Build 0)  -->

<svg
   xmlns:dc="http://purl.org/dc/elements/1.1/"
   xmlns:cc="http://creativecommons.org/ns#"
   xmlns:rdf="http://www.w3.org/1999/02/22-rdf-syntax-ns#"
   xmlns:svg="http://www.w3.org/2000/svg"
   xmlns="http://www.w3.org/2000/svg"
   xmlns:sodipodi="http://sodipodi.sourceforge.net/DTD/sodipodi-0.dtd"
   xmlns:inkscape="http://www.inkscape.org/namespaces/inkscape"
   version="1.1"
   id="Capa_1"
   x="0px"
   y="0px"
   width="32"
   height="44.78838"
   viewBox="0 0 32.000001 44.788381"
   xml:space="preserve"
   sodipodi:docname="google-place.svg"
   inkscape:version="0.92.3 (2405546, 2018-03-11)"><metadata
   id="metadata6623"><rdf:RDF><cc:Work
       rdf:about=""><dc:format>image/svg+xml</dc:format><dc:type
         rdf:resource="http://purl.org/dc/dcmitype/StillImage" /><dc:title></dc:title></cc:Work></rdf:RDF></metadata><defs
   id="defs6621" /><sodipodi:namedview
   pagecolor="#ffffff"
   bordercolor="#666666"
   borderopacity="1"
   objecttolerance="10"
   gridtolerance="10"
   guidetolerance="10"
   inkscape:pageopacity="0"
   inkscape:pageshadow="2"
   inkscape:window-width="1920"
   inkscape:window-height="1017"
   id="namedview6619"
   showgrid="false"
   fit-margin-top="0"
   fit-margin-left="0"
   fit-margin-right="0"
   fit-margin-bottom="0"
   inkscape:zoom="0.45950426"
   inkscape:cx="183.47549"
   inkscape:cy="256.79838"
   inkscape:window-x="1912"
   inkscape:window-y="-8"
   inkscape:window-maximized="1"
   inkscape:current-layer="Capa_1" />
<g
   id="g6586"
   transform="matrix(0.08720531,0,0,0.08720531,-6.3941549,4.1142735e-6)">
	<path
   d="M 263.278,0.107 C 158.977,-3.408 73.323,80.095 73.323,183.602 c 0,117.469 112.73,202.72 175.915,325.322 3.208,6.225 12.169,6.233 15.388,0.009 C 321.786,398.616 419.48,324.642 437.585,218.364 456.331,108.387 374.776,3.866 263.278,0.107 Z m -6.355,279.666 c -53.113,0 -96.171,-43.059 -96.171,-96.171 0,-53.112 43.059,-96.171 96.171,-96.171 53.113,0 96.172,43.059 96.172,96.171 0,53.112 -43.059,96.171 -96.172,96.171 z"
   id="path6584"
   inkscape:connector-curvature="0" />
</g>
<g
   id="g6588"
   transform="translate(-73.323,-468.8085)">
</g>
<g
   id="g6590"
   transform="translate(-73.323,-468.8085)">
</g>
<g
   id="g6592"
   transform="translate(-73.323,-468.8085)">
</g>
<g
   id="g6594"
   transform="translate(-73.323,-468.8085)">
</g>
<g
   id="g6596"
   transform="translate(-73.323,-468.8085)">
</g>
<g
   id="g6598"
   transform="translate(-73.323,-468.8085)">
</g>
<g
   id="g6600"
   transform="translate(-73.323,-468.8085)">
</g>
<g
   id="g6602"
   transform="translate(-73.323,-468.8085)">
</g>
<g
   id="g6604"
   transform="translate(-73.323,-468.8085)">
</g>
<g
   id="g6606"
   transform="translate(-73.323,-468.8085)">
</g>
<g
   id="g6608"
   transform="translate(-73.323,-468.8085)">
</g>
<g
   id="g6610"
   transform="translate(-73.323,-468.8085)">
</g>
<g
   id="g6612"
   transform="translate(-73.323,-468.8085)">
</g>
<g
   id="g6614"
   transform="translate(-73.323,-468.8085)">
</g>
<g
   id="g6616"
   transform="translate(-73.323,-468.8085)">
</g>
</svg>