<?xml version="1.0" encoding="UTF-8" standalone="no"?>
<!-- Created with Inkscape (http://www.inkscape.org/) -->

<svg
   xmlns:dc="http://purl.org/dc/elements/1.1/"
   xmlns:cc="http://creativecommons.org/ns#"
   xmlns:rdf="http://www.w3.org/1999/02/22-rdf-syntax-ns#"
   xmlns:svg="http://www.w3.org/2000/svg"
   xmlns="http://www.w3.org/2000/svg"
   xmlns:sodipodi="http://sodipodi.sourceforge.net/DTD/sodipodi-0.dtd"
   xmlns:inkscape="http://www.inkscape.org/namespaces/inkscape"
   width="68.791664mm"
   height="28.077583mm"
   viewBox="0 0 68.791665 28.077583"
   version="1.1"
   id="svg8"
   inkscape:version="0.92.3 (2405546, 2018-03-11)"
   sodipodi:docname="logo-blue.svg">
  <defs
     id="defs2" />
  <sodipodi:namedview
     id="base"
     pagecolor="#ffffff"
     bordercolor="#666666"
     borderopacity="1.0"
     inkscape:pageopacity="0.0"
     inkscape:pageshadow="2"
     inkscape:zoom="0.35355339"
     inkscape:cx="-303.62802"
     inkscape:cy="47.813322"
     inkscape:document-units="mm"
     inkscape:current-layer="layer1"
     showgrid="false"
     inkscape:window-width="1920"
     inkscape:window-height="1017"
     inkscape:window-x="1912"
     inkscape:window-y="-8"
     inkscape:window-maximized="1"
     fit-margin-top="0"
     fit-margin-left="0"
     fit-margin-right="0"
     fit-margin-bottom="0" />
  <metadata
     id="metadata5">
    <rdf:RDF>
      <cc:Work
         rdf:about="">
        <dc:format>image/svg+xml</dc:format>
        <dc:type
           rdf:resource="http://purl.org/dc/dcmitype/StillImage" />
        <dc:title></dc:title>
      </cc:Work>
    </rdf:RDF>
  </metadata>
  <g
     inkscape:label="Layer 1"
     inkscape:groupmode="layer"
     id="layer1"
     transform="translate(-1.6127495,-48.405024)">
    <g
       id="g901"
       transform="matrix(0.26259123,0,0,0.26259032,5.7090175,42.053735)">
      <path
         sodipodi:nodetypes="ccssccccsccccccccssscscccccccccccccsscscscccscsccsscccccscccccscccccscccccccsccccccccscccscccssscscccccccccscscccccsccccccccccccsscccccccccsssccccccccscsccccccccccscczccccccsscscccccccccczcc"
         style="fill:#162840;fill-opacity:1;stroke-width:0.21685085"
         d="m 61.839822,130.80523 c -0.01322,-0.31442 -0.267651,-1.43161 -0.565276,-2.48265 -0.297656,-1.05101 -0.522299,-1.99716 -0.499221,-2.10257 0.02308,-0.10539 -0.0402,-0.21175 -0.140611,-0.23635 -0.196067,-0.0481 -0.583514,0.49978 -1.364394,1.92907 -0.469576,0.85948 -0.521267,0.88799 -1.197532,0.66069 -0.388727,-0.13071 -0.895213,-0.45837 -1.125527,-0.7283 -0.230318,-0.26989 -0.56977,-0.63865 -0.75436,-0.81941 -0.184596,-0.18081 -0.259688,-0.37755 -0.166888,-0.43726 0.09284,-0.0597 -0.797426,-1.72179 -1.978374,-3.6935 -2.285887,-3.8168 -2.4395,-4.16108 -2.49205,-5.58482 -0.09081,-2.457 -0.584654,-3.048 -3.328806,-3.98484 -0.928056,-0.31682 -2.033185,-0.79752 -2.455764,-1.06819 -0.422575,-0.27069 -1.117249,-0.53176 -1.543726,-0.58015 -0.514925,-0.0584 -0.836603,-0.21344 -0.957558,-0.46133 -0.117225,-0.24027 -0.398223,-0.38121 -0.788414,-0.39545 -0.338413,-0.0123 -0.645824,-0.1419 -0.695851,-0.29318 -0.04927,-0.14908 -0.236007,-0.30691 -0.414945,-0.35074 -0.465112,-0.1139 -2.526681,-1.77415 -2.478161,-1.99574 0.02233,-0.10201 -0.100952,-0.22013 -0.27397,-0.26251 -0.257928,-0.0631 -0.345999,0.15979 -0.489041,1.23816 -0.107411,0.80995 -0.254618,1.29555 -0.383156,1.26408 -0.114793,-0.0282 -0.249746,0.16798 -0.299913,0.43577 -0.08699,0.46458 -0.07874,0.46921 0.181429,0.10096 0.295084,-0.41764 0.297264,-0.45889 -0.100521,1.89909 -0.09072,0.53792 -0.149622,1.2364 -0.130819,1.55221 l 0.03417,0.57416 -0.306369,-0.64083 -0.306376,-0.64084 -0.204591,0.91175 c -0.21244,0.94761 -0.104311,1.13331 0.461502,0.792 0.275263,-0.16606 0.273037,-0.12702 -0.01278,0.22318 -0.398704,0.48855 -0.823692,0.45067 -1.158836,-0.10323 -0.128407,-0.21222 -0.287846,-0.35088 -0.354351,-0.30812 -0.06646,0.0427 0.0305,-0.39662 0.215448,-0.97644 0.224127,-0.70206 0.258253,-1.07333 0.102263,-1.11154 -0.150821,-0.037 -0.120225,-0.57795 0.08597,-1.51967 l 0.320172,-1.4623 -1.043464,-0.25554 c -0.643243,-0.15752 -1.122998,-0.40023 -1.250856,-0.63276 -0.217532,-0.39567 -0.494349,-3.37284 -0.367454,-3.95238 0.105465,-0.48167 0.788961,-0.79599 1.963963,-0.90316 l 1.020371,-0.0931 0.06266,1.00602 c 0.03447,0.5533 0.137105,1.02424 0.228075,1.04653 0.09097,0.0222 0.07416,0.22185 -0.03736,0.44349 -0.111496,0.22164 -0.109219,0.42588 0.005,0.45386 0.319625,0.0783 0.686291,-0.8102 0.440997,-1.0686 -0.148361,-0.15628 -0.101966,-0.20043 0.148656,-0.14144 0.200344,0.0473 0.385495,-0.0109 0.411354,-0.12907 0.02586,-0.11814 -0.05738,-0.24038 -0.184969,-0.27163 -0.13158,-0.0323 -0.142096,-0.23556 -0.0243,-0.46971 0.147745,-0.29369 0.05006,-0.64835 -0.338312,-1.22827 -0.325378,-0.48584 -0.478535,-0.95329 -0.378985,-1.1567 0.201329,-0.41137 -0.643731,-1.99863 -1.414688,-2.65719 -0.302164,-0.258104 -1.538755,-1.551817 -2.748033,-2.874901 -1.209238,-1.323066 -2.271142,-2.423348 -2.359654,-2.445024 -0.0886,-0.02169 -0.395549,0.267503 -0.682091,0.642658 -0.286557,0.375142 -0.896459,0.862299 -1.355354,1.082563 -0.525555,0.252252 -1.26968,0.96393 -2.010585,1.922892 -0.940284,1.217066 -1.402338,1.616632 -2.303252,1.991762 -0.85607,0.35646 -1.10974,0.56639 -1.055212,0.87317 0.122926,0.69151 0.02036,1.606 -0.239499,2.13532 -0.334783,0.68195 -0.721065,0.55099 -0.485098,-0.16448 0.133167,-0.40378 0.08701,-0.61655 -0.159282,-0.73456 -0.43147,-0.20673 -0.66005,0.60719 -0.375564,1.33731 0.127878,0.3282 0.09836,0.64109 -0.08796,0.93408 -0.342311,0.53807 -0.449615,0.51714 -1.187102,-0.23161 -0.457184,-0.4642 -0.55049,-0.73535 -0.434862,-1.26346 0.148324,-0.67742 1.047612,-2.38957 1.621909,-3.08788 0.170408,-0.20722 0.889224,-1.113557 1.597385,-2.014129 0.70814,-0.900506 1.629236,-1.897019 2.046885,-2.214558 1.048239,-0.796848 2.560899,-2.437422 2.661924,-2.887041 0.119226,-0.529409 1.565849,-2.407498 2.184301,-2.835191 0.454153,-0.314055 0.500482,-0.433369 0.361089,-0.930011 -0.08795,-0.313356 -0.15595,-0.6197 -0.15111,-0.680753 0.03223,-0.406596 -0.350535,-1.217449 -0.603943,-1.279511 -0.241459,-0.05913 -0.234638,-0.278742 0.03276,-1.054052 0.185787,-0.538658 0.394738,-1.038916 0.464389,-1.111698 0.06964,-0.07279 0.03805,-0.188892 -0.07063,-0.258111 -0.306961,-0.195715 0.517296,-1.167907 1.037236,-1.223435 0.246579,-0.02636 0.511259,-0.01346 0.588175,0.02861 0.07691,0.0421 0.424111,0.03108 0.771568,-0.02444 0.347445,-0.05551 0.938243,-0.003 1.312876,0.116707 0.414292,0.132347 0.869559,0.109634 1.16203,-0.05804 0.269845,-0.154681 0.45746,-0.168695 0.427517,-0.03193 -0.02935,0.134047 0.276122,0.53142 0.678833,0.883052 0.8176,0.713883 0.940889,1.38812 0.405597,2.218294 -0.410168,0.636111 -0.337491,1.054537 0.470563,2.70955 0.536956,1.099704 0.552469,1.111534 1.704615,1.298554 2.386135,0.38733 4.04342,-0.271917 8.640586,-3.436875 l 1.23171,-0.84805 c -0.569371,-0.946105 -0.684484,-5.380572 -0.684484,-5.380572 -0.459733,0.01249 -0.42423,-0.387043 -0.723574,-0.659923 0,0 0.619708,-2.819091 0.585027,-3.00299 -0.385686,-2.045122 -2.139147,-8.062566 -0.234746,-8.358644 2.517693,-0.391427 5.184774,-0.25483 7.181043,-0.07171 2.279237,-0.317648 6.542043,18.44946 8.143274,35.577487 1.306654,13.97702 -0.890156,28.7108 -1.032696,26.08001 z m -3.180207,-6.66087 c 0.660805,-0.50303 0.765816,-2.23091 0.189876,-3.12334 -0.601413,-0.9318 -4.084785,-5.72639 -4.547052,-6.25873 -0.410948,-0.47325 -0.369334,-0.28897 1.161769,5.14449 1.093662,3.88128 2.030928,5.12427 3.195479,4.23782 z m 1.166188,-0.9798 c -0.02843,-0.20385 -0.04287,-0.41109 -0.03206,-0.4605 0.01085,-0.0493 -0.06508,-0.11058 -0.168662,-0.13596 -0.103563,-0.0252 -0.181751,0.1592 -0.173715,0.41012 0.008,0.25091 0.107213,0.47888 0.220393,0.5066 0.113168,0.0277 0.182488,-0.11644 0.154044,-0.32026 z m -1.964378,-4.25339 c -0.05202,-0.16833 -0.233607,-0.64564 -0.403526,-1.06068 -0.169925,-0.41504 -0.581338,-1.89068 -0.91424,-3.27921 -0.788198,-3.28728 -0.753889,-3.22253 -1.51234,-2.85673 -0.339844,0.16393 -0.734063,0.2696 -0.876085,0.23482 -0.142005,-0.0347 -0.400842,0.0482 -0.574985,0.18586 -0.258776,0.20348 -0.159954,0.50759 0.539898,1.6612 0.771398,1.27155 3.618014,5.34455 3.772962,5.39881 0.03465,0.0116 0.02036,-0.11577 -0.03174,-0.28412 z m -20.135421,-9.22226 c -0.115344,-0.19064 -0.20934,-0.22702 -0.238807,-0.0924 -0.06277,0.28672 0.127322,0.60092 0.297383,0.49152 0.07243,-0.0466 0.04621,-0.22614 -0.05861,-0.39908 z m -0.168492,-1.12382 c 0.111497,-0.22164 0.118014,-0.42373 0.01441,-0.44911 -0.103553,-0.0253 -0.230648,0.1472 -0.282381,0.38348 -0.05173,0.23629 -0.05818,0.43839 -0.01441,0.44912 0.04383,0.0106 0.170883,-0.16183 0.282387,-0.38349 z m -0.05061,-1.144 c 0.09724,-0.49436 0.0832,-0.50733 -0.166475,-0.15393 -0.149949,0.21224 -0.320101,0.57795 -0.378117,0.81269 -0.08705,0.35226 -0.05802,0.37912 0.166481,0.15393 0.149576,-0.15008 0.319726,-0.5158 0.378111,-0.81269 z m 12.081489,1.8838 c 0.01787,-0.0889 -0.01136,-0.56139 -0.06451,-1.04967 -0.09893,-0.90858 -2.085192,-4.51247 -2.549786,-4.62626 -0.216836,-0.0531 -1.467858,1.33883 -1.553062,1.72798 -0.01773,0.0808 0.229623,0.2111 0.549601,0.28947 0.723648,0.17722 1.003444,0.61628 0.847276,1.32955 -0.104706,0.47823 0.04505,0.66845 1.156204,1.4684 1.405956,1.01218 1.567182,1.09811 1.614365,0.86052 z m 4.674138,-0.12895 c 0.530287,-0.38326 1.006408,-0.87049 1.058002,-1.08275 0.05145,-0.21227 -0.125952,-1.26947 -0.394571,-2.34936 -0.353422,-1.42084 -0.43558,-2.26004 -0.297278,-3.03648 0.129225,-0.72552 0.0968,-1.16185 -0.100174,-1.34755 -0.160202,-0.15106 -0.253281,-0.44818 -0.206843,-0.66028 0.04644,-0.21209 -0.06146,-0.60224 -0.239782,-0.866961 -0.178321,-0.264729 -0.356121,-0.824262 -0.39511,-1.243427 -0.03898,-0.419166 -0.194815,-0.849177 -0.346299,-0.955626 -0.361344,-0.253901 -0.654943,1.089591 -1.272121,5.821484 -0.660449,5.06333 -0.521742,6.41334 0.659045,6.41622 0.314042,7.1e-4 1.004872,-0.31215 1.535161,-0.69539 z m -5.048202,-3.69688 c -0.119542,-1.44217 -0.481408,-3.6743 -0.600735,-3.70601 -0.05699,-0.0148 -0.404766,0.3254 -0.773007,0.75652 l -0.669537,0.78386 0.920339,1.53889 c 0.506189,0.84638 0.984249,1.55454 1.062355,1.57367 0.07814,0.0191 0.105413,-0.40702 0.06063,-0.94702 z m -5.627191,-6.28474 c 0.08916,-0.09322 0.01095,-0.239689 -0.173843,-0.32548 -0.310838,-0.144297 -0.301954,-0.177886 0.118534,-0.448414 0.254671,-0.16382 0.602711,-0.200969 0.791415,-0.08443 0.218552,0.134959 0.681024,0.0046 1.316989,-0.371201 0.539082,-0.318532 1.738585,-0.88046 2.665532,-1.248716 0.926969,-0.368249 1.845253,-0.795249 2.040635,-0.948875 0.228318,-0.179526 0.680173,-0.199725 1.264774,-0.05655 0.614336,0.150455 0.929697,0.130832 0.971585,-0.06042 0.177805,-0.81207 -0.139913,-2.657764 -0.575888,-3.345494 -0.27058,-0.426845 -0.455951,-0.940608 -0.411926,-1.141688 0.130503,-0.596052 -0.408112,-1.409615 -1.089298,-1.645376 -0.475881,-0.164704 -0.905043,-0.08545 -1.711045,0.31582 -0.591708,0.294627 -1.425365,0.679024 -1.852578,0.854271 -0.42721,0.175238 -1.489972,0.888432 -2.361679,1.584895 -0.871722,0.69645 -1.947823,1.346792 -2.391352,1.445181 -0.44354,0.0984 -0.881642,0.257523 -0.973621,0.353638 -0.226494,0.236712 -0.0328,1.978577 0.385144,3.463548 0.273373,0.971345 0.464347,1.264264 0.947352,1.453108 0.332737,0.130069 0.666173,0.26783 0.741011,0.306081 0.07483,0.0383 0.209025,-0.0067 0.298208,-0.09989 z"
         id="path3949"
         inkscape:connector-curvature="0" />
      <path
         d="m 3.6537908,64.776264 q -5.4355999,0 -9.8551998,-2.3368 -4.3688,-2.3876 -6.9088,-6.5532 -2.4892,-4.2164 -2.4892,-9.4996 0,-5.2832 2.4892,-9.448799 2.54,-4.2164 6.9088,-6.5532 4.4195999,-2.3876 9.9059998,-2.3876 4.6228,0 8.3312002,1.6256 3.7592,1.6256 6.2992,4.6736 l -5.2832,4.876799 q -3.6068002,-4.165599 -8.9408002,-4.165599 -3.30199991,0 -5.8927999,1.4732 -2.5907999,1.4224 -4.0639999,4.013199 -1.4224,2.5908 -1.4224,5.8928 0,3.302 1.4224,5.8928 1.4732,2.5908 4.0639999,4.064 2.59079999,1.4224 5.8927999,1.4224 5.334,0 8.9408002,-4.2164 l 5.2832,4.8768 q -2.54,3.0988 -6.2992,4.7244 -3.7592002,1.6256 -8.3820002,1.6256 z"
         style="font-style:normal;font-variant:normal;font-weight:bold;font-stretch:normal;font-size:50.79999924px;line-height:1.25;font-family:Montserrat;-inkscape-font-specification:'Montserrat, Bold';font-variant-ligatures:normal;font-variant-caps:normal;font-variant-numeric:normal;font-feature-settings:normal;text-align:center;letter-spacing:0px;word-spacing:0px;writing-mode:lr-tb;text-anchor:middle;fill:#162840;fill-opacity:1;stroke:none;stroke-width:0.26458332"
         id="path859"
         inkscape:connector-curvature="0" />
      <path
         d="m 23.284022,26.473065 h 7.9248 v 37.693599 h -7.9248 z"
         style="font-style:normal;font-variant:normal;font-weight:bold;font-stretch:normal;font-size:50.79999924px;line-height:1.25;font-family:Montserrat;-inkscape-font-specification:'Montserrat, Bold';font-variant-ligatures:normal;font-variant-caps:normal;font-variant-numeric:normal;font-feature-settings:normal;text-align:center;letter-spacing:0px;word-spacing:0px;writing-mode:lr-tb;text-anchor:middle;fill:#162840;fill-opacity:1;stroke:none;stroke-width:0.26458332"
         id="path861"
         inkscape:connector-curvature="0" />
      <path
         d="m 38.563708,36.836265 h 7.9248 v 27.330399 h -7.9248 z m 3.9624,-3.81 q -2.1844,0 -3.556,-1.27 -1.3716,-1.27 -1.3716,-3.1496 0,-1.8796 1.3716,-3.1496 1.3716,-1.27 3.556,-1.27 2.1844,0 3.556,1.2192 1.3716,1.2192 1.3716,3.048 0,1.9812 -1.3716,3.302 -1.3716,1.27 -3.556,1.27 z"
         style="font-style:normal;font-variant:normal;font-weight:bold;font-stretch:normal;font-size:50.79999924px;line-height:1.25;font-family:Montserrat;-inkscape-font-specification:'Montserrat, Bold';font-variant-ligatures:normal;font-variant-caps:normal;font-variant-numeric:normal;font-feature-settings:normal;text-align:center;letter-spacing:0px;word-spacing:0px;writing-mode:lr-tb;text-anchor:middle;fill:#162840;fill-opacity:1;stroke:none;stroke-width:0.26458332"
         id="path863"
         inkscape:connector-curvature="0" />
      <path
         d="m 88.844594,36.429865 q 5.1308,0 8.128,3.047999 3.047996,2.9972 3.047996,9.0424 v 15.6464 h -7.924796 v -14.4272 q 0,-3.2512 -1.3716,-4.826 -1.3208,-1.6256 -3.81,-1.6256 -2.794,0 -4.4196,1.8288 -1.6256,1.778 -1.6256,5.334 v 13.716 h -7.9248 v -14.4272 q 0,-6.4516 -5.1816,-6.4516 -2.7432,0 -4.3688,1.8288 -1.6256,1.778 -1.6256,5.334 v 13.716 h -7.9248 V 36.836265 h 7.5692 v 3.149599 q 1.524,-1.727199 3.7084,-2.641599 2.2352,-0.9144 4.8768,-0.9144 2.8956,0 5.2324,1.1684 2.3368,1.1176 3.7592,3.301999 1.6764,-2.133599 4.2164,-3.301999 2.5908,-1.1684 5.6388,-1.1684 z"
         style="font-style:normal;font-variant:normal;font-weight:bold;font-stretch:normal;font-size:50.79999924px;line-height:1.25;font-family:Montserrat;-inkscape-font-specification:'Montserrat, Bold';font-variant-ligatures:normal;font-variant-caps:normal;font-variant-numeric:normal;font-feature-settings:normal;text-align:center;letter-spacing:0px;word-spacing:0px;writing-mode:lr-tb;text-anchor:middle;fill:#162840;fill-opacity:1;stroke:none;stroke-width:0.26458332"
         id="path865"
         inkscape:connector-curvature="0" />
      <path
         d="m 123.27827,36.429865 q 3.81,0 6.9088,1.778 3.1496,1.727199 4.9276,4.927599 1.778,3.1496 1.778,7.366 0,4.2164 -1.778,7.4168 -1.778,3.1496 -4.9276,4.9276 -3.0988,1.7272 -6.9088,1.7272 -5.6388,0 -8.5852,-3.556 v 3.1496 h -7.5692 V 26.473065 h 7.9248 v 13.258799 q 2.9972,-3.301999 8.2296,-3.301999 z m -1.3716,21.640799 q 3.048,0 4.9784,-2.032 1.9812,-2.0828 1.9812,-5.5372 0,-3.4544 -1.9812,-5.4864 -1.9304,-2.0828 -4.9784,-2.0828 -3.048,0 -5.0292,2.0828 -1.9304,2.032 -1.9304,5.4864 0,3.4544 1.9304,5.5372 1.9812,2.032 5.0292,2.032 z"
         style="font-style:normal;font-variant:normal;font-weight:bold;font-stretch:normal;font-size:50.79999924px;line-height:1.25;font-family:Montserrat;-inkscape-font-specification:'Montserrat, Bold';font-variant-ligatures:normal;font-variant-caps:normal;font-variant-numeric:normal;font-feature-settings:normal;text-align:center;letter-spacing:0px;word-spacing:0px;writing-mode:lr-tb;text-anchor:middle;fill:#162840;fill-opacity:1;stroke:none;stroke-width:0.26458332"
         id="path867"
         inkscape:connector-curvature="0" />
      <path
         d="m 142.14808,36.836265 h 7.9248 v 27.330399 h -7.9248 z m 3.9624,-3.81 q -2.1844,0 -3.556,-1.27 -1.3716,-1.27 -1.3716,-3.1496 0,-1.8796 1.3716,-3.1496 1.3716,-1.27 3.556,-1.27 2.1844,0 3.556,1.2192 1.3716,1.2192 1.3716,3.048 0,1.9812 -1.3716,3.302 -1.3716,1.27 -3.556,1.27 z"
         style="font-style:normal;font-variant:normal;font-weight:bold;font-stretch:normal;font-size:50.79999924px;line-height:1.25;font-family:Montserrat;-inkscape-font-specification:'Montserrat, Bold';font-variant-ligatures:normal;font-variant-caps:normal;font-variant-numeric:normal;font-feature-settings:normal;text-align:center;letter-spacing:0px;word-spacing:0px;writing-mode:lr-tb;text-anchor:middle;fill:#162840;fill-opacity:1;stroke:none;stroke-width:0.26458332"
         id="path869"
         inkscape:connector-curvature="0" />
      <path
         d="m 174.03938,36.429865 q 5.08,0 8.1788,3.047999 3.14959,3.048 3.14959,9.0424 v 15.6464 h -7.92479 v -14.4272 q 0,-3.2512 -1.4224,-4.826 -1.4224,-1.6256 -4.1148,-1.6256 -2.9972,0 -4.7752,1.8796 -1.778,1.8288 -1.778,5.4864 v 13.5128 h -7.9248 V 36.836265 h 7.5692 v 3.200399 q 1.5748,-1.727199 3.9116,-2.641599 2.3368,-0.9652 5.1308,-0.9652 z"
         style="font-style:normal;font-variant:normal;font-weight:bold;font-stretch:normal;font-size:50.79999924px;line-height:1.25;font-family:Montserrat;-inkscape-font-specification:'Montserrat, Bold';font-variant-ligatures:normal;font-variant-caps:normal;font-variant-numeric:normal;font-feature-settings:normal;text-align:center;letter-spacing:0px;word-spacing:0px;writing-mode:lr-tb;text-anchor:middle;fill:#162840;fill-opacity:1;stroke:none;stroke-width:0.26458332"
         id="path871"
         inkscape:connector-curvature="0" />
      <path
         d="m 221.04286,36.836265 v 22.758399 q 0,7.5184 -3.9116,11.176 -3.9116,3.6576 -11.43,3.6576 -3.9624,0 -7.5184,-0.9652 -3.556,-0.9652 -5.8928,-2.794 l 3.1496,-5.6896 q 1.7272,1.4224 4.3688,2.2352 2.6416,0.8636 5.2832,0.8636 4.1148,0 6.0452,-1.8796 1.9812,-1.8288 1.9812,-5.588 v -1.1684 q -3.0988,3.4036 -8.636,3.4036 -3.7592,0 -6.9088,-1.6256 -3.0988,-1.6764 -4.9276,-4.6736 -1.8288,-2.9972 -1.8288,-6.9088 0,-3.9116 1.8288,-6.9088 1.8288,-2.9972 4.9276,-4.622799 3.1496,-1.6764 6.9088,-1.6764 5.9436,0 9.0424,3.911599 v -3.505199 z m -14.986,19.507199 q 3.1496,0 5.1308,-1.8288 2.032,-1.8796 2.032,-4.8768 0,-2.9972 -2.032,-4.826 -1.9812,-1.8796 -5.1308,-1.8796 -3.1496,0 -5.1816,1.8796 -2.032,1.8288 -2.032,4.826 0,2.9972 2.032,4.8768 2.032,1.8288 5.1816,1.8288 z"
         style="font-style:normal;font-variant:normal;font-weight:bold;font-stretch:normal;font-size:50.79999924px;line-height:1.25;font-family:Montserrat;-inkscape-font-specification:'Montserrat, Bold';font-variant-ligatures:normal;font-variant-caps:normal;font-variant-numeric:normal;font-feature-settings:normal;text-align:center;letter-spacing:0px;word-spacing:0px;writing-mode:lr-tb;text-anchor:middle;fill:#162840;fill-opacity:1;stroke:none;stroke-width:0.26458332"
         id="path873"
         inkscape:connector-curvature="0" />
      <g
         id="text842"
         style="font-style:normal;font-variant:normal;font-weight:bold;font-stretch:normal;font-size:50.79999924px;line-height:1.25;font-family:Montserrat;-inkscape-font-specification:'Montserrat, Bold';font-variant-ligatures:normal;font-variant-caps:normal;font-variant-numeric:normal;font-feature-settings:normal;text-align:center;letter-spacing:0px;word-spacing:0px;writing-mode:lr-tb;text-anchor:middle;fill:#162840;fill-opacity:1;stroke:none;stroke-width:0.26458332"
         aria-label="Finland">
        <path
           id="path844"
           style="font-style:normal;font-variant:normal;font-weight:bold;font-stretch:normal;font-size:50.79999924px;font-family:Montserrat;-inkscape-font-specification:'Montserrat, Bold';font-variant-ligatures:normal;font-variant-caps:normal;font-variant-numeric:normal;font-feature-settings:normal;text-align:center;writing-mode:lr-tb;text-anchor:middle;fill:#162840;fill-opacity:1;stroke-width:0.26458332"
           d="m 62.917586,75.72291 v 9.398 h 16.4592 v 6.603999 h -16.4592 v 12.954001 h -8.229599 v -35.56 h 26.873199 v 6.604 z"
           inkscape:connector-curvature="0" />
        <path
           id="path846"
           style="font-style:normal;font-variant:normal;font-weight:bold;font-stretch:normal;font-size:50.79999924px;font-family:Montserrat;-inkscape-font-specification:'Montserrat, Bold';font-variant-ligatures:normal;font-variant-caps:normal;font-variant-numeric:normal;font-feature-settings:normal;text-align:center;writing-mode:lr-tb;text-anchor:middle;fill:#162840;fill-opacity:1;stroke-width:0.26458332"
           d="m 86.077623,77.34851 h 7.9248 v 27.3304 h -7.9248 z m 3.9624,-3.81 q -2.1844,0 -3.556,-1.27 -1.3716,-1.27 -1.3716,-3.1496 0,-1.8796 1.3716,-3.1496 1.3716,-1.27 3.556,-1.27 2.1844,0 3.556,1.2192 1.3716,1.2192 1.3716,3.048 0,1.9812 -1.3716,3.302 -1.3716,1.27 -3.556,1.27 z"
           inkscape:connector-curvature="0" />
        <path
           id="path848"
           style="font-style:normal;font-variant:normal;font-weight:bold;font-stretch:normal;font-size:50.79999924px;font-family:Montserrat;-inkscape-font-specification:'Montserrat, Bold';font-variant-ligatures:normal;font-variant-caps:normal;font-variant-numeric:normal;font-feature-settings:normal;text-align:center;writing-mode:lr-tb;text-anchor:middle;fill:#162840;fill-opacity:1;stroke-width:0.26458332"
           d="m 117.96891,76.94211 q 5.08,0 8.1788,3.048 3.1496,3.048 3.1496,9.0424 v 15.6464 h -7.9248 v -14.4272 q 0,-3.2512 -1.4224,-4.826 -1.4224,-1.6256 -4.1148,-1.6256 -2.9972,0 -4.7752,1.8796 -1.778,1.8288 -1.778,5.4864 v 13.5128 h -7.9248 v -27.3304 h 7.5692 v 3.2004 q 1.5748,-1.7272 3.9116,-2.6416 2.3368,-0.9652 5.1308,-0.9652 z"
           inkscape:connector-curvature="0" />
        <path
           id="path850"
           style="font-style:normal;font-variant:normal;font-weight:bold;font-stretch:normal;font-size:50.79999924px;font-family:Montserrat;-inkscape-font-specification:'Montserrat, Bold';font-variant-ligatures:normal;font-variant-caps:normal;font-variant-numeric:normal;font-feature-settings:normal;text-align:center;writing-mode:lr-tb;text-anchor:middle;fill:#162840;fill-opacity:1;stroke-width:0.26458332"
           d="m 136.48075,66.98531 h 7.9248 v 37.6936 h -7.9248 z"
           inkscape:connector-curvature="0" />
        <path
           id="path852"
           style="font-style:normal;font-variant:normal;font-weight:bold;font-stretch:normal;font-size:50.79999924px;font-family:Montserrat;-inkscape-font-specification:'Montserrat, Bold';font-variant-ligatures:normal;font-variant-caps:normal;font-variant-numeric:normal;font-feature-settings:normal;text-align:center;writing-mode:lr-tb;text-anchor:middle;fill:#162840;fill-opacity:1;stroke-width:0.26458332"
           d="m 162.78403,76.94211 q 6.35,0 9.7536,3.048 3.4036,2.9972 3.4036,9.0932 v 15.5956 h -7.4168 v -3.4036 q -2.2352,3.81 -8.3312,3.81 -3.1496,0 -5.4864,-1.0668 -2.286,-1.0668 -3.50519,-2.9464 -1.2192,-1.879601 -1.2192,-4.267201 0,-3.81 2.84479,-5.994399 2.8956,-2.1844 8.89,-2.1844 h 6.2992 q 0,-2.5908 -1.5748,-3.9624 -1.5748,-1.4224 -4.7244,-1.4224 -2.1844,0 -4.318,0.7112 -2.0828,0.6604 -3.556,1.8288 l -2.84479,-5.5372 q 2.23519,-1.5748 5.33399,-2.4384 3.1496,-0.8636 6.4516,-0.8636 z m -0.6096,22.809199 q 2.032,0 3.6068,-0.9144 1.5748,-0.9652 2.2352,-2.794 v -2.794 h -5.4356 q -4.8768,0 -4.8768,3.2004 0,1.524 1.1684,2.4384 1.2192,0.8636 3.302,0.8636 z"
           inkscape:connector-curvature="0" />
        <path
           id="path854"
           style="font-style:normal;font-variant:normal;font-weight:bold;font-stretch:normal;font-size:50.79999924px;font-family:Montserrat;-inkscape-font-specification:'Montserrat, Bold';font-variant-ligatures:normal;font-variant-caps:normal;font-variant-numeric:normal;font-feature-settings:normal;text-align:center;writing-mode:lr-tb;text-anchor:middle;fill:#162840;fill-opacity:1;stroke-width:0.26458332"
           d="m 199.72516,76.94211 q 5.08,0 8.1788,3.048 3.1496,3.048 3.1496,9.0424 v 15.6464 h -7.9248 v -14.4272 q 0,-3.2512 -1.4224,-4.826 -1.4224,-1.6256 -4.1148,-1.6256 -2.9972,0 -4.7752,1.8796 -1.778,1.8288 -1.778,5.4864 v 13.5128 h -7.9248 v -27.3304 h 7.5692 v 3.2004 q 1.5748,-1.7272 3.9116,-2.6416 2.3368,-0.9652 5.1308,-0.9652 z"
           inkscape:connector-curvature="0" />
        <path
           id="path856"
           style="font-style:normal;font-variant:normal;font-weight:bold;font-stretch:normal;font-size:50.79999924px;font-family:Montserrat;-inkscape-font-specification:'Montserrat, Bold';font-variant-ligatures:normal;font-variant-caps:normal;font-variant-numeric:normal;font-feature-settings:normal;text-align:center;writing-mode:lr-tb;text-anchor:middle;fill:#162840;fill-opacity:1;stroke-width:0.26458332"
           d="m 246.37304,66.98531 v 37.6936 h -7.5692 v -3.1496 q -2.9464,3.556 -8.5344,3.556 -3.8608,0 -7.0104,-1.7272 -3.0988,-1.7272 -4.8768,-4.927601 -1.778,-3.2004 -1.778,-7.416799 0,-4.2164 1.778,-7.4168 1.778,-3.2004 4.8768,-4.9276 3.1496,-1.7272 7.0104,-1.7272 5.2324,0 8.1788,3.302 v -13.2588 z m -14.732,31.597599 q 2.9972,0 4.9784,-2.032 1.9812,-2.0828 1.9812,-5.537199 0,-3.4544 -1.9812,-5.4864 -1.9812,-2.0828 -4.9784,-2.0828 -3.048,0 -5.0292,2.0828 -1.9812,2.032 -1.9812,5.4864 0,3.454399 1.9812,5.537199 1.9812,2.032 5.0292,2.032 z"
           inkscape:connector-curvature="0" />
      </g>
    </g>
  </g>
</svg>
