<?xml version="1.0" encoding="UTF-8" standalone="no"?>
<!-- Created with Inkscape (http://www.inkscape.org/) -->

<svg
   xmlns:dc="http://purl.org/dc/elements/1.1/"
   xmlns:cc="http://creativecommons.org/ns#"
   xmlns:rdf="http://www.w3.org/1999/02/22-rdf-syntax-ns#"
   xmlns:svg="http://www.w3.org/2000/svg"
   xmlns="http://www.w3.org/2000/svg"
   xmlns:sodipodi="http://sodipodi.sourceforge.net/DTD/sodipodi-0.dtd"
   xmlns:inkscape="http://www.inkscape.org/namespaces/inkscape"
   width="35.71875mm"
   height="14.578753mm"
   viewBox="0 0 35.71875 14.578752"
   version="1.1"
   id="svg8"
   inkscape:version="0.92.3 (2405546, 2018-03-11)"
   sodipodi:docname="logo-white.svg">
  <defs
     id="defs2" />
  <sodipodi:namedview
     id="base"
     pagecolor="#ffffff"
     bordercolor="#666666"
     borderopacity="1.0"
     inkscape:pageopacity="0.0"
     inkscape:pageshadow="2"
     inkscape:zoom="0.35355339"
     inkscape:cx="-862.98969"
     inkscape:cy="29.657427"
     inkscape:document-units="mm"
     inkscape:current-layer="g901"
     showgrid="false"
     inkscape:window-width="1920"
     inkscape:window-height="1017"
     inkscape:window-x="1912"
     inkscape:window-y="-8"
     inkscape:window-maximized="1"
     fit-margin-top="0"
     fit-margin-left="0"
     fit-margin-right="0"
     fit-margin-bottom="0" />
  <metadata
     id="metadata5">
    <rdf:RDF>
      <cc:Work
         rdf:about="">
        <dc:format>image/svg+xml</dc:format>
        <dc:type
           rdf:resource="http://purl.org/dc/dcmitype/StillImage" />
        <dc:title></dc:title>
      </cc:Work>
    </rdf:RDF>
  </metadata>
  <g
     inkscape:label="Layer 1"
     inkscape:groupmode="layer"
     id="layer1"
     transform="translate(-1.6127495,-61.904024)">
    <g
       id="g901"
       transform="matrix(0.78289719,0,0,0.70604844,13.825483,-16.089165)">
      <path
         sodipodi:nodetypes="ccssccccsccccccccssscscccccccccccccsscscscccscsccsscccccscccccscccccscccccccsccccccccscccscccssscscccccccccscscccccsccccccccccccsscccccccccsssccccccccscsccccccccccscczccccccsscscccccccccczcc"
         style="fill:#d9d9d9;fill-opacity:1;stroke-width:0.03534889"
         d="m -3.6114734,131.05972 c -0.00204,-0.054 -0.041434,-0.24575 -0.087508,-0.42615 -0.046078,-0.18041 -0.080854,-0.34282 -0.077282,-0.36091 0.00357,-0.0181 -0.00622,-0.0364 -0.021766,-0.0405 -0.030352,-0.008 -0.09033,0.0858 -0.2112141,0.33112 -0.072692,0.14752 -0.080694,0.15242 -0.1853833,0.11341 -0.060177,-0.0224 -0.1385828,-0.0787 -0.1742367,-0.12501 -0.035654,-0.0463 -0.088203,-0.10963 -0.1167781,-0.14066 -0.028576,-0.031 -0.040201,-0.0648 -0.025836,-0.075 0.014372,-0.0102 -0.123445,-0.29554 -0.306261,-0.634 -0.3538655,-0.65515 -0.3776453,-0.71424 -0.3857803,-0.95864 -0.014057,-0.42174 -0.090507,-0.52319 -0.5153141,-0.684 -0.1436671,-0.0544 -0.3147459,-0.13688 -0.3801629,-0.18335 -0.065417,-0.0465 -0.1729552,-0.0913 -0.2389757,-0.0996 -0.079713,-0.01 -0.1295099,-0.0366 -0.1482342,-0.0792 -0.018147,-0.0412 -0.061647,-0.0654 -0.12205,-0.0679 -0.052388,-0.002 -0.099976,-0.0244 -0.1077207,-0.0503 -0.00763,-0.0256 -0.036535,-0.0527 -0.064236,-0.0602 -0.072002,-0.0195 -0.3911414,-0.30453 -0.3836303,-0.34257 0.00346,-0.0175 -0.015628,-0.0378 -0.042412,-0.0451 -0.039929,-0.0108 -0.053563,0.0275 -0.075706,0.21253 -0.016628,0.13902 -0.039416,0.22238 -0.059314,0.21698 -0.017771,-0.004 -0.038662,0.0288 -0.046428,0.0747 -0.013467,0.0797 -0.012189,0.0805 0.028086,0.0173 0.04568,-0.0717 0.046018,-0.0788 -0.015562,0.32598 -0.014043,0.0923 -0.023164,0.21222 -0.020252,0.26643 l 0.00529,0.0985 -0.047428,-0.10999 -0.047428,-0.11001 -0.031672,0.15651 c -0.032887,0.16266 -0.016147,0.19453 0.071443,0.13595 0.042612,-0.0285 0.042268,-0.0218 -0.00197,0.0383 -0.061722,0.0838 -0.1275113,0.0773 -0.179393,-0.0177 -0.019877,-0.0364 -0.04456,-0.0603 -0.054855,-0.0529 -0.01029,0.007 0.00472,-0.0681 0.033352,-0.1676 0.034696,-0.12051 0.039979,-0.18424 0.01583,-0.1908 -0.023347,-0.006 -0.018612,-0.0992 0.013309,-0.26085 l 0.049564,-0.25101 -0.1615327,-0.0438 c -0.099577,-0.027 -0.1738452,-0.0687 -0.1936381,-0.10862 -0.033675,-0.0679 -0.076527,-0.57895 -0.056883,-0.67843 0.016326,-0.0827 0.1221347,-0.13663 0.3040302,-0.15502 l 0.157958,-0.016 0.0097,0.17268 c 0.00533,0.095 0.021226,0.17582 0.035307,0.17965 0.014083,0.004 0.011479,0.038 -0.00579,0.0761 -0.01726,0.038 -0.016908,0.0731 7.762e-4,0.0779 0.049479,0.0134 0.1062406,-0.13907 0.068268,-0.18342 -0.022966,-0.0268 -0.015786,-0.0344 0.023013,-0.0243 0.031014,0.008 0.059676,-0.002 0.063679,-0.0222 0.004,-0.0203 -0.00888,-0.0412 -0.028634,-0.0467 -0.02037,-0.005 -0.021997,-0.0404 -0.00376,-0.0806 0.022872,-0.0504 0.00775,-0.11128 -0.052372,-0.21082 -0.05037,-0.0834 -0.074079,-0.16364 -0.058669,-0.19855 0.031167,-0.0706 -0.099652,-0.34307 -0.219,-0.45611 -0.046776,-0.0443 -0.2382059,-0.26637 -0.4254076,-0.49348 -0.1871955,-0.22711 -0.3515828,-0.41597 -0.3652847,-0.41969 -0.013716,-0.004 -0.061233,0.046 -0.1055909,0.11032 -0.04436,0.0644 -0.1387757,0.14801 -0.2098148,0.18581 -0.081358,0.0433 -0.196552,0.16547 -0.3112474,0.33007 -0.1455601,0.20891 -0.2170882,0.27749 -0.3565537,0.34189 -0.1325233,0.0611 -0.1717926,0.0972 -0.1633513,0.14988 0.019029,0.11869 0.00316,0.27567 -0.037076,0.36652 -0.051826,0.11706 -0.111624,0.0946 -0.075095,-0.0283 0.020615,-0.0693 0.013469,-0.10583 -0.024658,-0.12609 -0.066794,-0.0355 -0.1021787,0.10422 -0.058139,0.22955 0.019796,0.0564 0.015227,0.11004 -0.013617,0.16033 -0.052991,0.0924 -0.069603,0.0888 -0.1837684,-0.0397 -0.07077,-0.0796 -0.08522,-0.12622 -0.06732,-0.21687 0.02296,-0.11629 0.1621745,-0.41018 0.2510782,-0.53005 0.02638,-0.0356 0.1376558,-0.19113 0.2472823,-0.34572 0.1096231,-0.15457 0.2522128,-0.32563 0.3168668,-0.38013 0.1622719,-0.13678 0.3964385,-0.41839 0.4120776,-0.49556 0.018457,-0.0909 0.2424003,-0.41325 0.3381394,-0.48667 0.070305,-0.0539 0.077477,-0.0744 0.055898,-0.15963 -0.013615,-0.0538 -0.024141,-0.10637 -0.023391,-0.11685 0.00499,-0.0698 -0.054264,-0.20898 -0.093493,-0.21963 -0.037379,-0.0101 -0.036324,-0.0478 0.00507,-0.18093 0.028761,-0.0925 0.061108,-0.17833 0.07189,-0.19083 0.01078,-0.0125 0.00589,-0.0324 -0.010933,-0.0443 -0.047519,-0.0336 0.08008,-0.20047 0.1605689,-0.21 0.038171,-0.004 0.079145,-0.003 0.091052,0.005 0.011905,0.007 0.065654,0.005 0.1194421,-0.004 0.053786,-0.01 0.1452443,-5.1e-4 0.203239,0.02 0.064134,0.0227 0.1346118,0.0189 0.1798875,-0.01 0.041773,-0.0266 0.070817,-0.029 0.066181,-0.005 -0.00454,0.023 0.042745,0.0912 0.1050862,0.15158 0.1265682,0.12255 0.1456539,0.23828 0.062788,0.38078 -0.063496,0.10918 -0.052245,0.18101 0.072845,0.46509 0.083124,0.18877 0.085524,0.1908 0.2638817,0.2229 0.3693845,0.0665 0.6259395,-0.0467 1.3376009,-0.58994 l 0.1906743,-0.14557 c -0.088141,-0.1624 -0.105961,-0.92358 -0.105961,-0.92358 -0.071169,0.002 -0.065673,-0.0664 -0.1120127,-0.11328 0,0 0.095933,-0.4839 0.090565,-0.51546 -0.059706,-0.35105 -0.3311494,-1.38395 -0.036339,-1.43478 0.38975,-0.0672 0.8026261,-0.0437 1.1116573,-0.0123 0.3528358,-0.0545 1.0127372,3.16686 1.2606149,6.1069 0.2022758,2.39917 -0.1378002,4.92823 -0.1598659,4.47665 z m -0.4923101,-1.14335 c 0.1022957,-0.0863 0.1185517,-0.38294 0.029394,-0.53613 -0.093101,-0.15994 -0.6323428,-0.98293 -0.7039038,-1.07431 -0.063617,-0.0812 -0.057174,-0.0496 0.179847,0.88306 0.1693038,0.66622 0.3143968,0.87958 0.4946744,0.72742 z m 0.1805312,-0.16818 c -0.0044,-0.035 -0.00664,-0.0706 -0.00496,-0.079 0.00167,-0.009 -0.010076,-0.0189 -0.026109,-0.0233 -0.016033,-0.004 -0.028136,0.0273 -0.026892,0.0704 0.00124,0.0431 0.016597,0.0822 0.034117,0.0869 0.017519,0.004 0.02825,-0.02 0.023847,-0.0549 z m -0.3040944,-0.7301 c -0.00805,-0.0289 -0.036164,-0.11083 -0.062468,-0.18207 -0.026305,-0.0712 -0.089994,-0.32453 -0.1415284,-0.56287 -0.1220164,-0.56427 -0.1167052,-0.55316 -0.2341169,-0.49037 -0.052609,0.0281 -0.1136361,0.0463 -0.1356217,0.0403 -0.021983,-0.006 -0.062053,0.008 -0.08901,0.0319 -0.04006,0.0349 -0.024762,0.0871 0.083579,0.28515 0.119416,0.21826 0.5600847,0.91739 0.5840714,0.92671 0.00537,0.002 0.00316,-0.0199 -0.00492,-0.0488 z m -3.1170525,-1.58301 c -0.017855,-0.0327 -0.032407,-0.0389 -0.036968,-0.0158 -0.00972,0.0493 0.019711,0.10315 0.046036,0.0844 0.011211,-0.008 0.00716,-0.0388 -0.00907,-0.0685 z m -0.026084,-0.19291 c 0.01726,-0.038 0.018269,-0.0727 0.00223,-0.0771 -0.01603,-0.004 -0.035706,0.0252 -0.043714,0.0658 -0.00801,0.0405 -0.00901,0.0753 -0.00223,0.0771 0.00678,0.002 0.026453,-0.0277 0.043715,-0.0659 z m -0.00783,-0.19636 c 0.015054,-0.0849 0.012881,-0.0871 -0.025771,-0.0264 -0.023213,0.0364 -0.049553,0.0992 -0.058534,0.1395 -0.013476,0.0604 -0.00898,0.0651 0.025772,0.0264 0.023154,-0.0258 0.049495,-0.0885 0.058533,-0.1395 z m 1.870268,0.32336 c 0.00276,-0.0153 -0.00176,-0.0964 -0.00999,-0.18018 -0.015316,-0.15597 -0.3227971,-0.77458 -0.3947182,-0.79411 -0.033567,-0.009 -0.227231,0.22981 -0.2404209,0.29661 -0.00275,0.0139 0.035547,0.0363 0.085081,0.0497 0.1120239,0.0304 0.1553377,0.10579 0.1311621,0.22822 -0.016209,0.082 0.00697,0.11474 0.1789856,0.25205 0.2176481,0.17374 0.2426066,0.18849 0.2499107,0.14771 z m 0.7235774,-0.0221 c 0.082091,-0.0658 0.1557962,-0.14942 0.1637832,-0.18586 0.00796,-0.0364 -0.019497,-0.2179 -0.061081,-0.40327 -0.054711,-0.24388 -0.06743,-0.38793 -0.046021,-0.52121 0.020004,-0.12453 0.014986,-0.19943 -0.015508,-0.2313 -0.0248,-0.026 -0.039209,-0.0769 -0.03202,-0.11334 0.00719,-0.0364 -0.00951,-0.10337 -0.037119,-0.14882 -0.027604,-0.0454 -0.055129,-0.14148 -0.061164,-0.21343 -0.00604,-0.0719 -0.030158,-0.14576 -0.053609,-0.16404 -0.055938,-0.0435 -0.1013881,0.18703 -0.19693,0.99926 -0.1022404,0.86913 -0.080768,1.10087 0.1020232,1.10135 0.048615,1.3e-4 0.1555587,-0.0536 0.2376496,-0.11936 z m -0.7814842,-0.63458 c -0.018507,-0.24754 -0.074524,-0.63069 -0.092996,-0.63613 -0.00882,-0.003 -0.062659,0.0558 -0.1196648,0.12986 l -0.1036472,0.13455 0.1424725,0.26415 c 0.07836,0.14528 0.1523659,0.26684 0.1644572,0.27012 0.012096,0.004 0.016319,-0.0699 0.00939,-0.16255 z m -0.871114,-1.07877 c 0.013803,-0.016 0.0017,-0.0412 -0.026912,-0.0559 -0.048119,-0.0248 -0.046744,-0.0306 0.018349,-0.077 0.039424,-0.0281 0.093302,-0.0345 0.1225145,-0.0145 0.033833,0.0232 0.1054256,7.1e-4 0.2038757,-0.0637 0.083452,-0.0547 0.2691407,-0.15113 0.4126362,-0.21435 0.1434989,-0.0632 0.2856533,-0.1365 0.3158993,-0.16287 0.035345,-0.0308 0.1052938,-0.0343 0.1957926,-0.01 0.095102,0.0258 0.143921,0.0225 0.1504056,-0.0104 0.027525,-0.13938 -0.021658,-0.4562 -0.08915,-0.57425 -0.041887,-0.0733 -0.070583,-0.16145 -0.063768,-0.19598 0.020203,-0.10231 -0.063178,-0.24195 -0.1686282,-0.28242 -0.073669,-0.0283 -0.1401048,-0.0147 -0.2648773,0.0542 -0.091599,0.0506 -0.2206529,0.11655 -0.2867872,0.14663 -0.066134,0.03 -0.2306543,0.15251 -0.3655984,0.27205 -0.1349465,0.11955 -0.3015316,0.23118 -0.3701918,0.24806 -0.068662,0.0169 -0.1364822,0.0442 -0.1507211,0.0607 -0.035062,0.0406 -0.00508,0.33962 0.059622,0.59452 0.042319,0.16673 0.071883,0.21701 0.1466544,0.24943 0.051509,0.0223 0.1031264,0.046 0.1147116,0.0525 0.011583,0.006 0.032358,-8.8e-4 0.046164,-0.0172 z"
         id="path3949"
         inkscape:connector-curvature="0" />
      <path
         d="m -12.618928,119.72579 q -0.841455,0 -1.525629,-0.40111 -0.67631,-0.40984 -1.069512,-1.12487 -0.38534,-0.72375 -0.38534,-1.63061 0,-0.90687 0.38534,-1.62189 0.393202,-0.72375 1.069512,-1.12486 0.684174,-0.40984 1.533493,-0.40984 0.715629,0 1.289707,0.27904 0.58194,0.27903 0.975143,0.80222 l -0.817863,0.83711 q -0.558348,-0.71503 -1.384075,-0.71503 -0.511164,0 -0.912231,0.25288 -0.401068,0.24415 -0.629126,0.68886 -0.220193,0.44472 -0.220193,1.01151 0,0.56679 0.220193,1.0115 0.228058,0.44471 0.629126,0.69759 0.401067,0.24416 0.912231,0.24416 0.825727,0 1.384075,-0.72376 l 0.817863,0.83712 q -0.393203,0.53191 -0.975143,0.81094 -0.581942,0.27904 -1.297571,0.27904 z"
         style="font-style:normal;font-variant:normal;font-weight:bold;font-stretch:normal;font-size:50.79999924px;line-height:1.25;font-family:Montserrat;-inkscape-font-specification:'Montserrat, Bold';font-variant-ligatures:normal;font-variant-caps:normal;font-variant-numeric:normal;font-feature-settings:normal;text-align:center;letter-spacing:0px;word-spacing:0px;writing-mode:lr-tb;text-anchor:middle;fill:#d9d9d9;fill-opacity:1;stroke:none;stroke-width:0.04312976"
         id="path859"
         inkscape:connector-curvature="0" />
      <path
         d="m -9.5800818,113.15101 h 1.2267941 v 6.47014 h -1.2267941 z"
         style="font-style:normal;font-variant:normal;font-weight:bold;font-stretch:normal;font-size:50.79999924px;line-height:1.25;font-family:Montserrat;-inkscape-font-specification:'Montserrat, Bold';font-variant-ligatures:normal;font-variant-caps:normal;font-variant-numeric:normal;font-feature-settings:normal;text-align:center;letter-spacing:0px;word-spacing:0px;writing-mode:lr-tb;text-anchor:middle;fill:#d9d9d9;fill-opacity:1;stroke:none;stroke-width:0.04312976"
         id="path861"
         inkscape:connector-curvature="0" />
      <path
         d="m -7.2147188,114.92987 h 1.2267941 v 4.69128 h -1.2267941 z m 0.613397,-0.65399 q -0.3381548,0 -0.5504845,-0.218 -0.2123297,-0.21799 -0.2123297,-0.54063 0,-0.32264 0.2123297,-0.54064 0.2123297,-0.21799 0.5504845,-0.21799 0.3381547,0 0.5504846,0.20927 0.2123297,0.20928 0.2123297,0.5232 0,0.34008 -0.2123297,0.56679 -0.2123299,0.218 -0.5504846,0.218 z"
         style="font-style:normal;font-variant:normal;font-weight:bold;font-stretch:normal;font-size:50.79999924px;line-height:1.25;font-family:Montserrat;-inkscape-font-specification:'Montserrat, Bold';font-variant-ligatures:normal;font-variant-caps:normal;font-variant-numeric:normal;font-feature-settings:normal;text-align:center;letter-spacing:0px;word-spacing:0px;writing-mode:lr-tb;text-anchor:middle;fill:#d9d9d9;fill-opacity:1;stroke:none;stroke-width:0.04312976"
         id="path863"
         inkscape:connector-curvature="0" />
      <path
         d="m 0.56898478,114.86011 q 0.79427052,0 1.25825042,0.52319 0.4718434,0.51447 0.4718434,1.55213 v 2.68572 H 1.0722849 v -2.47644 q 0,-0.55807 -0.21232963,-0.82839 -0.20446578,-0.27903 -0.58980497,-0.27903 -0.43252338,0 -0.68417342,0.31391 -0.25165031,0.3052 -0.25165031,0.91558 v 2.35437 H -1.8924675 v -2.47644 q 0,-1.10742 -0.8021346,-1.10742 -0.4246596,0 -0.6763095,0.31391 -0.2516501,0.3052 -0.2516501,0.91558 v 2.35437 h -1.2267941 v -4.69128 h 1.1717457 v 0.54063 q 0.2359218,-0.29648 0.5740767,-0.45344 0.3460188,-0.15695 0.7549503,-0.15695 0.4482517,0 0.8099985,0.20055 0.361747,0.19184 0.58194079,0.56679 0.25951411,-0.36623 0.6527174,-0.56679 0.40106746,-0.20055 0.87291119,-0.20055 z"
         style="font-style:normal;font-variant:normal;font-weight:bold;font-stretch:normal;font-size:50.79999924px;line-height:1.25;font-family:Montserrat;-inkscape-font-specification:'Montserrat, Bold';font-variant-ligatures:normal;font-variant-caps:normal;font-variant-numeric:normal;font-feature-settings:normal;text-align:center;letter-spacing:0px;word-spacing:0px;writing-mode:lr-tb;text-anchor:middle;fill:#d9d9d9;fill-opacity:1;stroke:none;stroke-width:0.04312976"
         id="path865"
         inkscape:connector-curvature="0" />
      <path
         d="m 5.8994702,114.86011 q 0.5898049,0 1.0695128,0.30519 0.4875723,0.29648 0.7628141,0.84583 0.2752427,0.54063 0.2752427,1.26437 0,0.72375 -0.2752427,1.27311 -0.2752418,0.54063 -0.7628141,0.84583 -0.4797079,0.29647 -1.0695128,0.29647 -0.8729112,0 -1.3290268,-0.61039 v 0.54063 H 3.3986977 v -6.47014 h 1.2267941 v 2.27589 q 0.4639799,-0.56679 1.2739784,-0.56679 z m -0.2123297,3.71466 q 0.4718438,0 0.7706783,-0.3488 0.3066987,-0.35752 0.3066987,-0.95047 0,-0.59295 -0.3066987,-0.94174 -0.2988345,-0.35751 -0.7706783,-0.35751 -0.4718438,0 -0.7785424,0.35751 -0.2988346,0.34879 -0.2988346,0.94174 0,0.59295 0.2988346,0.95047 0.3066986,0.3488 0.7785424,0.3488 z"
         style="font-style:normal;font-variant:normal;font-weight:bold;font-stretch:normal;font-size:50.79999924px;line-height:1.25;font-family:Montserrat;-inkscape-font-specification:'Montserrat, Bold';font-variant-ligatures:normal;font-variant-caps:normal;font-variant-numeric:normal;font-feature-settings:normal;text-align:center;letter-spacing:0px;word-spacing:0px;writing-mode:lr-tb;text-anchor:middle;fill:#d9d9d9;fill-opacity:1;stroke:none;stroke-width:0.04312976"
         id="path867"
         inkscape:connector-curvature="0" />
      <path
         d="m 8.8206007,114.92987 h 1.2267933 v 4.69128 H 8.8206007 Z m 0.6133964,-0.65399 q -0.3381547,0 -0.5504844,-0.218 -0.2123298,-0.21799 -0.2123298,-0.54063 0,-0.32264 0.2123298,-0.54064 0.2123297,-0.21799 0.5504844,-0.21799 0.3381547,0 0.5504853,0.20927 0.2123286,0.20928 0.2123286,0.5232 0,0.34008 -0.2123286,0.56679 -0.2123306,0.218 -0.5504853,0.218 z"
         style="font-style:normal;font-variant:normal;font-weight:bold;font-stretch:normal;font-size:50.79999924px;line-height:1.25;font-family:Montserrat;-inkscape-font-specification:'Montserrat, Bold';font-variant-ligatures:normal;font-variant-caps:normal;font-variant-numeric:normal;font-feature-settings:normal;text-align:center;letter-spacing:0px;word-spacing:0px;writing-mode:lr-tb;text-anchor:middle;fill:#d9d9d9;fill-opacity:1;stroke:none;stroke-width:0.04312976"
         id="path869"
         inkscape:connector-curvature="0" />
      <path
         d="m 13.757515,114.86011 q 0.786406,0 1.266115,0.52319 0.48757,0.52319 0.48757,1.55213 v 2.68572 h -1.226792 v -2.47644 q 0,-0.55807 -0.220195,-0.82839 -0.220195,-0.27903 -0.636989,-0.27903 -0.463981,0 -0.739222,0.32263 -0.275242,0.31391 -0.275242,0.94174 v 2.31949 h -1.226795 v -4.69128 h 1.171747 v 0.54935 q 0.243786,-0.29648 0.605531,-0.45344 0.361748,-0.16567 0.794272,-0.16567 z"
         style="font-style:normal;font-variant:normal;font-weight:bold;font-stretch:normal;font-size:50.79999924px;line-height:1.25;font-family:Montserrat;-inkscape-font-specification:'Montserrat, Bold';font-variant-ligatures:normal;font-variant-caps:normal;font-variant-numeric:normal;font-feature-settings:normal;text-align:center;letter-spacing:0px;word-spacing:0px;writing-mode:lr-tb;text-anchor:middle;fill:#d9d9d9;fill-opacity:1;stroke:none;stroke-width:0.04312976"
         id="path871"
         inkscape:connector-curvature="0" />
      <path
         d="m 21.03386,114.92987 v 3.9065 q 0,1.29053 -0.605531,1.91836 -0.605534,0.62783 -1.769416,0.62783 -0.613396,0 -1.163882,-0.16568 -0.550484,-0.16567 -0.912231,-0.47959 l 0.487574,-0.97662 q 0.267377,0.24415 0.676307,0.38367 0.408934,0.14824 0.817864,0.14824 0.63699,0 0.935824,-0.32263 0.306697,-0.31392 0.306697,-0.95919 v -0.20055 q -0.479707,0.58423 -1.336889,0.58423 -0.581942,0 -1.069514,-0.27904 -0.479707,-0.28775 -0.762813,-0.80223 -0.283107,-0.51448 -0.283107,-1.1859 0,-0.67143 0.283107,-1.1859 0.283106,-0.51447 0.762813,-0.79351 0.487572,-0.28775 1.069514,-0.28775 0.920094,0 1.399804,0.67143 v -0.60167 z m -2.319897,3.34842 q 0.487572,0 0.79427,-0.31392 0.314562,-0.32263 0.314562,-0.8371 0,-0.51447 -0.314562,-0.82839 -0.306698,-0.32263 -0.79427,-0.32263 -0.487571,0 -0.802134,0.32263 -0.314563,0.31392 -0.314563,0.82839 0,0.51447 0.314563,0.8371 0.314563,0.31392 0.802134,0.31392 z"
         style="font-style:normal;font-variant:normal;font-weight:bold;font-stretch:normal;font-size:50.79999924px;line-height:1.25;font-family:Montserrat;-inkscape-font-specification:'Montserrat, Bold';font-variant-ligatures:normal;font-variant-caps:normal;font-variant-numeric:normal;font-feature-settings:normal;text-align:center;letter-spacing:0px;word-spacing:0px;writing-mode:lr-tb;text-anchor:middle;fill:#d9d9d9;fill-opacity:1;stroke:none;stroke-width:0.04312976"
         id="path873"
         inkscape:connector-curvature="0" />
      <g
         id="text842"
         style="font-style:normal;font-variant:normal;font-weight:bold;font-stretch:normal;font-size:50.79999924px;line-height:1.25;font-family:Montserrat;-inkscape-font-specification:'Montserrat, Bold';font-variant-ligatures:normal;font-variant-caps:normal;font-variant-numeric:normal;font-feature-settings:normal;text-align:center;letter-spacing:0px;word-spacing:0px;writing-mode:lr-tb;text-anchor:middle;fill:#d9d9d9;fill-opacity:1;stroke:none;stroke-width:0.26458332"
         aria-label="Finland"
         transform="matrix(0.15480443,0,0,0.1716508,-13.184551,108.60689)">
        <path
           id="path844"
           style="font-style:normal;font-variant:normal;font-weight:bold;font-stretch:normal;font-size:50.79999924px;font-family:Montserrat;-inkscape-font-specification:'Montserrat, Bold';font-variant-ligatures:normal;font-variant-caps:normal;font-variant-numeric:normal;font-feature-settings:normal;text-align:center;writing-mode:lr-tb;text-anchor:middle;fill:#d9d9d9;fill-opacity:1;stroke-width:0.26458332"
           d="m 62.917586,75.72291 v 9.398 h 16.4592 v 6.603999 h -16.4592 v 12.954001 h -8.229599 v -35.56 h 26.873199 v 6.604 z"
           inkscape:connector-curvature="0" />
        <path
           id="path846"
           style="font-style:normal;font-variant:normal;font-weight:bold;font-stretch:normal;font-size:50.79999924px;font-family:Montserrat;-inkscape-font-specification:'Montserrat, Bold';font-variant-ligatures:normal;font-variant-caps:normal;font-variant-numeric:normal;font-feature-settings:normal;text-align:center;writing-mode:lr-tb;text-anchor:middle;fill:#d9d9d9;fill-opacity:1;stroke-width:0.26458332"
           d="m 86.077623,77.34851 h 7.9248 v 27.3304 h -7.9248 z m 3.9624,-3.81 q -2.1844,0 -3.556,-1.27 -1.3716,-1.27 -1.3716,-3.1496 0,-1.8796 1.3716,-3.1496 1.3716,-1.27 3.556,-1.27 2.1844,0 3.556,1.2192 1.3716,1.2192 1.3716,3.048 0,1.9812 -1.3716,3.302 -1.3716,1.27 -3.556,1.27 z"
           inkscape:connector-curvature="0" />
        <path
           id="path848"
           style="font-style:normal;font-variant:normal;font-weight:bold;font-stretch:normal;font-size:50.79999924px;font-family:Montserrat;-inkscape-font-specification:'Montserrat, Bold';font-variant-ligatures:normal;font-variant-caps:normal;font-variant-numeric:normal;font-feature-settings:normal;text-align:center;writing-mode:lr-tb;text-anchor:middle;fill:#d9d9d9;fill-opacity:1;stroke-width:0.26458332"
           d="m 117.96891,76.94211 q 5.08,0 8.1788,3.048 3.1496,3.048 3.1496,9.0424 v 15.6464 h -7.9248 v -14.4272 q 0,-3.2512 -1.4224,-4.826 -1.4224,-1.6256 -4.1148,-1.6256 -2.9972,0 -4.7752,1.8796 -1.778,1.8288 -1.778,5.4864 v 13.5128 h -7.9248 v -27.3304 h 7.5692 v 3.2004 q 1.5748,-1.7272 3.9116,-2.6416 2.3368,-0.9652 5.1308,-0.9652 z"
           inkscape:connector-curvature="0" />
        <path
           id="path850"
           style="font-style:normal;font-variant:normal;font-weight:bold;font-stretch:normal;font-size:50.79999924px;font-family:Montserrat;-inkscape-font-specification:'Montserrat, Bold';font-variant-ligatures:normal;font-variant-caps:normal;font-variant-numeric:normal;font-feature-settings:normal;text-align:center;writing-mode:lr-tb;text-anchor:middle;fill:#d9d9d9;fill-opacity:1;stroke-width:0.26458332"
           d="m 136.48075,66.98531 h 7.9248 v 37.6936 h -7.9248 z"
           inkscape:connector-curvature="0" />
        <path
           id="path852"
           style="font-style:normal;font-variant:normal;font-weight:bold;font-stretch:normal;font-size:50.79999924px;font-family:Montserrat;-inkscape-font-specification:'Montserrat, Bold';font-variant-ligatures:normal;font-variant-caps:normal;font-variant-numeric:normal;font-feature-settings:normal;text-align:center;writing-mode:lr-tb;text-anchor:middle;fill:#d9d9d9;fill-opacity:1;stroke-width:0.26458332"
           d="m 162.78403,76.94211 q 6.35,0 9.7536,3.048 3.4036,2.9972 3.4036,9.0932 v 15.5956 h -7.4168 v -3.4036 q -2.2352,3.81 -8.3312,3.81 -3.1496,0 -5.4864,-1.0668 -2.286,-1.0668 -3.50519,-2.9464 -1.2192,-1.879601 -1.2192,-4.267201 0,-3.81 2.84479,-5.994399 2.8956,-2.1844 8.89,-2.1844 h 6.2992 q 0,-2.5908 -1.5748,-3.9624 -1.5748,-1.4224 -4.7244,-1.4224 -2.1844,0 -4.318,0.7112 -2.0828,0.6604 -3.556,1.8288 l -2.84479,-5.5372 q 2.23519,-1.5748 5.33399,-2.4384 3.1496,-0.8636 6.4516,-0.8636 z m -0.6096,22.809199 q 2.032,0 3.6068,-0.9144 1.5748,-0.9652 2.2352,-2.794 v -2.794 h -5.4356 q -4.8768,0 -4.8768,3.2004 0,1.524 1.1684,2.4384 1.2192,0.8636 3.302,0.8636 z"
           inkscape:connector-curvature="0" />
        <path
           id="path854"
           style="font-style:normal;font-variant:normal;font-weight:bold;font-stretch:normal;font-size:50.79999924px;font-family:Montserrat;-inkscape-font-specification:'Montserrat, Bold';font-variant-ligatures:normal;font-variant-caps:normal;font-variant-numeric:normal;font-feature-settings:normal;text-align:center;writing-mode:lr-tb;text-anchor:middle;fill:#d9d9d9;fill-opacity:1;stroke-width:0.26458332"
           d="m 199.72516,76.94211 q 5.08,0 8.1788,3.048 3.1496,3.048 3.1496,9.0424 v 15.6464 h -7.9248 v -14.4272 q 0,-3.2512 -1.4224,-4.826 -1.4224,-1.6256 -4.1148,-1.6256 -2.9972,0 -4.7752,1.8796 -1.778,1.8288 -1.778,5.4864 v 13.5128 h -7.9248 v -27.3304 h 7.5692 v 3.2004 q 1.5748,-1.7272 3.9116,-2.6416 2.3368,-0.9652 5.1308,-0.9652 z"
           inkscape:connector-curvature="0" />
        <path
           id="path856"
           style="font-style:normal;font-variant:normal;font-weight:bold;font-stretch:normal;font-size:50.79999924px;font-family:Montserrat;-inkscape-font-specification:'Montserrat, Bold';font-variant-ligatures:normal;font-variant-caps:normal;font-variant-numeric:normal;font-feature-settings:normal;text-align:center;writing-mode:lr-tb;text-anchor:middle;fill:#d9d9d9;fill-opacity:1;stroke-width:0.26458332"
           d="m 246.37304,66.98531 v 37.6936 h -7.5692 v -3.1496 q -2.9464,3.556 -8.5344,3.556 -3.8608,0 -7.0104,-1.7272 -3.0988,-1.7272 -4.8768,-4.927601 -1.778,-3.2004 -1.778,-7.416799 0,-4.2164 1.778,-7.4168 1.778,-3.2004 4.8768,-4.9276 3.1496,-1.7272 7.0104,-1.7272 5.2324,0 8.1788,3.302 v -13.2588 z m -14.732,31.597599 q 2.9972,0 4.9784,-2.032 1.9812,-2.0828 1.9812,-5.537199 0,-3.4544 -1.9812,-5.4864 -1.9812,-2.0828 -4.9784,-2.0828 -3.048,0 -5.0292,2.0828 -1.9812,2.032 -1.9812,5.4864 0,3.454399 1.9812,5.537199 1.9812,2.032 5.0292,2.032 z"
           inkscape:connector-curvature="0" />
      </g>
    </g>
  </g>
</svg>
