<?xml version="1.0" encoding="UTF-8" standalone="no"?>
<!-- Created with Inkscape (http://www.inkscape.org/) -->

<svg
   xmlns:dc="http://purl.org/dc/elements/1.1/"
   xmlns:cc="http://creativecommons.org/ns#"
   xmlns:rdf="http://www.w3.org/1999/02/22-rdf-syntax-ns#"
   xmlns:svg="http://www.w3.org/2000/svg"
   xmlns="http://www.w3.org/2000/svg"
   xmlns:sodipodi="http://sodipodi.sourceforge.net/DTD/sodipodi-0.dtd"
   xmlns:inkscape="http://www.inkscape.org/namespaces/inkscape"
   width="35.71875mm"
   height="14.578753mm"
   viewBox="0 0 35.71875 14.578752"
   version="1.1"
   id="svg8"
   inkscape:version="0.92.3 (2405546, 2018-03-11)"
   sodipodi:docname="logo-white.svg">
  <defs
     id="defs2" />
  <sodipodi:namedview
     id="base"
     pagecolor="#ffffff"
     bordercolor="#666666"
     borderopacity="1.0"
     inkscape:pageopacity="0.0"
     inkscape:pageshadow="2"
     inkscape:zoom="0.35355339"
     inkscape:cx="-862.98969"
     inkscape:cy="29.657427"
     inkscape:document-units="mm"
     inkscape:current-layer="g901"
     showgrid="false"
     inkscape:window-width="1920"
     inkscape:window-height="1017"
     inkscape:window-x="1912"
     inkscape:window-y="-8"
     inkscape:window-maximized="1"
     fit-margin-top="0"
     fit-margin-left="0"
     fit-margin-right="0"
     fit-margin-bottom="0" />
  <metadata
     id="metadata5">
    <rdf:RDF>
      <cc:Work
         rdf:about="">
        <dc:format>image/svg+xml</dc:format>
        <dc:type
           rdf:resource="http://purl.org/dc/dcmitype/StillImage" />
        <dc:title></dc:title>
      </cc:Work>
    </rdf:RDF>
  </metadata>
  <g
     inkscape:label="Layer 1"
     inkscape:groupmode="layer"
     id="layer1"
     transform="translate(-1.6127495,-61.904024)">
    <g
       id="g901"
       transform="matrix(0.78289719,0,0,0.70604844,13.825483,-16.089165)">
      <path
         sodipodi:nodetypes="ccssccccsccccccccssscscccccccccccccsscscscccscsccsscccccscccccscccccscccccccsccccccccscccscccssscscccccccccscscccccsccccccccccccsscccccccccsssccccccccscsccccccccccscczccccccsscscccccccccczcc"
         style="fill:#d9d9d9;fill-opacity:1;stroke-width:0.0397675"
         d="m -2.1129814,131.05309 c -0.0023,-0.0607 -0.046613,-0.27646 -0.098446,-0.47942 -0.051838,-0.20296 -0.090961,-0.38567 -0.086942,-0.40602 0.00402,-0.0204 -0.007,-0.0409 -0.024487,-0.0456 -0.034146,-0.009 -0.1016219,0.0965 -0.2376159,0.37251 -0.081779,0.16597 -0.090781,0.17148 -0.2085562,0.12759 -0.067699,-0.0252 -0.1559057,-0.0885 -0.1960163,-0.14064 -0.040111,-0.0521 -0.099228,-0.12333 -0.1313754,-0.15824 -0.032148,-0.0349 -0.045226,-0.0729 -0.029065,-0.0844 0.016169,-0.0115 -0.1388756,-0.33248 -0.3445436,-0.71324 -0.3980987,-0.73705 -0.424851,-0.80353 -0.4340029,-1.07847 -0.015814,-0.47446 -0.1018204,-0.58859 -0.5797283,-0.7695 -0.1616255,-0.0612 -0.3540892,-0.154 -0.4276833,-0.20627 -0.073594,-0.0523 -0.1945746,-0.10269 -0.2688477,-0.11203 -0.089677,-0.0113 -0.1456986,-0.0412 -0.1667634,-0.0891 -0.020415,-0.0464 -0.069353,-0.0736 -0.1373063,-0.0764 -0.058936,-0.002 -0.1124733,-0.0274 -0.1211858,-0.0566 -0.00858,-0.0288 -0.041102,-0.0593 -0.072265,-0.0677 -0.081002,-0.022 -0.4400341,-0.3426 -0.4315841,-0.38539 0.00389,-0.0197 -0.017582,-0.0425 -0.047713,-0.0507 -0.04492,-0.0122 -0.060258,0.0309 -0.085169,0.2391 -0.018706,0.1564 -0.044343,0.25018 -0.066728,0.2441 -0.019992,-0.005 -0.043495,0.0324 -0.052231,0.0841 -0.01515,0.0897 -0.013713,0.0906 0.031597,0.0195 0.05139,-0.0806 0.05177,-0.0886 -0.017507,0.36673 -0.015798,0.10387 -0.026059,0.23875 -0.022783,0.29974 l 0.00595,0.11087 -0.053356,-0.12374 -0.053357,-0.12376 -0.035631,0.17607 c -0.036998,0.18299 -0.018166,0.21885 0.080373,0.15294 0.047938,-0.0321 0.047551,-0.0245 -0.00222,0.0431 -0.069437,0.0943 -0.1434502,0.087 -0.2018171,-0.0199 -0.022362,-0.041 -0.05013,-0.0678 -0.061712,-0.0595 -0.011576,0.008 0.00531,-0.0766 0.037521,-0.18855 0.039033,-0.13558 0.044976,-0.20727 0.017809,-0.21465 -0.026265,-0.007 -0.020939,-0.11161 0.014973,-0.29346 l 0.055759,-0.28238 -0.1817243,-0.0493 c -0.112024,-0.0304 -0.1955758,-0.0773 -0.2178428,-0.1222 -0.037884,-0.0764 -0.086093,-0.65132 -0.063994,-0.76323 0.018367,-0.093 0.1374016,-0.15371 0.342034,-0.1744 l 0.1777027,-0.018 0.010911,0.19427 c 0.006,0.10685 0.023879,0.19779 0.03972,0.2021 0.015843,0.004 0.012914,0.0428 -0.00651,0.0856 -0.019418,0.0428 -0.019021,0.0822 8.732e-4,0.0876 0.055664,0.0151 0.1195207,-0.15646 0.076802,-0.20635 -0.025837,-0.0302 -0.017759,-0.0387 0.025889,-0.0273 0.034891,0.009 0.067136,-0.002 0.071639,-0.025 0.0045,-0.0228 -0.00999,-0.0464 -0.032213,-0.0525 -0.022916,-0.006 -0.024747,-0.0455 -0.00423,-0.0907 0.025731,-0.0567 0.00872,-0.1252 -0.058919,-0.23718 -0.056666,-0.0938 -0.083339,-0.18409 -0.066002,-0.22337 0.035063,-0.0794 -0.112109,-0.38595 -0.246375,-0.51312 -0.052623,-0.0498 -0.2679817,-0.29967 -0.4785836,-0.55517 -0.2105949,-0.25549 -0.3955307,-0.46796 -0.4109453,-0.47215 -0.01543,-0.004 -0.068887,0.0517 -0.1187897,0.12411 -0.049905,0.0724 -0.1561227,0.16651 -0.2360417,0.20904 -0.091528,0.0487 -0.221121,0.18615 -0.3501533,0.37133 -0.1637551,0.23502 -0.2442242,0.31218 -0.4011229,0.38462 -0.1490888,0.0688 -0.1932667,0.10938 -0.1837703,0.16862 0.021408,0.13353 0.00355,0.31013 -0.04171,0.41234 -0.058304,0.13169 -0.125577,0.1064 -0.084482,-0.0318 0.023192,-0.078 0.015153,-0.11906 -0.02774,-0.14185 -0.075143,-0.0399 -0.114951,0.11725 -0.065406,0.25825 0.02227,0.0634 0.01713,0.12379 -0.015319,0.18037 -0.059615,0.10391 -0.078303,0.0999 -0.2067397,-0.0447 -0.079621,-0.0896 -0.095871,-0.142 -0.075733,-0.24398 0.025831,-0.13082 0.1824469,-0.46145 0.2824635,-0.5963 0.029678,-0.04 0.1548628,-0.21503 0.2781926,-0.38894 0.123326,-0.17389 0.2837394,-0.36633 0.3564752,-0.42765 0.1825559,-0.15387 0.4459933,-0.47068 0.4635873,-0.5575 0.020764,-0.10224 0.2727003,-0.46491 0.3804068,-0.5475 0.079093,-0.0606 0.087162,-0.0837 0.062885,-0.17959 -0.015317,-0.0605 -0.027159,-0.11967 -0.026315,-0.13146 0.00561,-0.0785 -0.061047,-0.2351 -0.1051795,-0.24708 -0.042051,-0.0114 -0.040864,-0.0538 0.0057,-0.20355 0.032356,-0.10402 0.068746,-0.20062 0.080876,-0.21468 0.012128,-0.014 0.00663,-0.0365 -0.0123,-0.0498 -0.053459,-0.0378 0.09009,-0.22553 0.18064,-0.23625 0.042943,-0.005 0.089038,-0.003 0.1024334,0.006 0.013393,0.008 0.073861,0.006 0.1343724,-0.005 0.060509,-0.0107 0.1633998,-5.8e-4 0.2286439,0.0225 0.072151,0.0255 0.1514382,0.0212 0.2023734,-0.0112 0.046995,-0.0299 0.079669,-0.0326 0.074454,-0.006 -0.00511,0.0259 0.048088,0.10263 0.1182219,0.17053 0.1423893,0.13786 0.1638607,0.26806 0.070637,0.42837 -0.071433,0.12283 -0.058776,0.20364 0.081951,0.52323 0.093514,0.21236 0.096215,0.21465 0.296867,0.25076 0.4155575,0.0748 0.7041819,-0.0525 1.504801,-0.66368 l 0.2145086,-0.16377 c -0.099159,-0.1827 -0.1192062,-1.03903 -0.1192062,-1.03903 -0.080065,0.002 -0.073882,-0.0747 -0.1260142,-0.12743 0,0 0.1079252,-0.54439 0.1018855,-0.5799 -0.067169,-0.39493 -0.3725431,-1.55694 -0.040882,-1.61412 0.4384688,-0.0756 0.9029544,-0.0492 1.2506145,-0.0138 0.3969403,-0.0613 1.1393294,3.56272 1.4181918,6.87026 0.2275602,2.69907 -0.1550252,5.54426 -0.1798492,5.03624 z m -0.5538489,-1.28627 c 0.1150827,-0.0971 0.1333707,-0.4308 0.033068,-0.60314 -0.104739,-0.17993 -0.7113857,-1.1058 -0.7918918,-1.2086 -0.071569,-0.0914 -0.064321,-0.0558 0.2023279,0.99344 0.1904667,0.7495 0.3536964,0.98953 0.5565087,0.81835 z m 0.2030976,-0.1892 c -0.00495,-0.0394 -0.00747,-0.0794 -0.00558,-0.0889 0.00188,-0.01 -0.011335,-0.0213 -0.029373,-0.0262 -0.018037,-0.005 -0.031653,0.0307 -0.030254,0.0792 0.0014,0.0485 0.018672,0.0925 0.038382,0.0978 0.019709,0.005 0.031781,-0.0225 0.026828,-0.0618 z m -0.3421062,-0.82136 c -0.00906,-0.0325 -0.040684,-0.12468 -0.070276,-0.20483 -0.029593,-0.0801 -0.1012429,-0.3651 -0.1592194,-0.63323 -0.1372685,-0.6348 -0.1312934,-0.6223 -0.2633816,-0.55166 -0.059185,0.0316 -0.1278406,0.0521 -0.1525744,0.0453 -0.024731,-0.007 -0.069809,0.009 -0.1001366,0.0359 -0.045067,0.0393 -0.027857,0.098 0.094026,0.32079 0.134343,0.24555 0.6300952,1.03207 0.6570803,1.04255 0.00604,0.002 0.00355,-0.0224 -0.00553,-0.0549 z m -3.506684,-1.78089 c -0.020087,-0.0368 -0.036458,-0.0438 -0.041589,-0.0178 -0.010933,0.0554 0.022175,0.11604 0.051791,0.0949 0.012613,-0.009 0.00805,-0.0437 -0.010208,-0.0771 z m -0.029344,-0.21702 c 0.019418,-0.0428 0.020553,-0.0818 0.00251,-0.0867 -0.018034,-0.005 -0.040169,0.0284 -0.049178,0.074 -0.00901,0.0456 -0.010131,0.0847 -0.00251,0.0867 0.00763,0.002 0.02976,-0.0312 0.049179,-0.0741 z m -0.00881,-0.22091 c 0.016936,-0.0955 0.014491,-0.098 -0.028992,-0.0297 -0.026114,0.041 -0.055747,0.11161 -0.065851,0.15694 -0.015161,0.068 -0.010104,0.0732 0.028994,0.0297 0.026048,-0.029 0.055682,-0.0996 0.06585,-0.15694 z m 2.1040516,0.36378 c 0.00311,-0.0172 -0.00198,-0.10841 -0.011234,-0.2027 -0.01723,-0.17546 -0.3631467,-0.8714 -0.4440579,-0.89337 -0.037763,-0.0103 -0.2556349,0.25854 -0.2704735,0.33369 -0.00309,0.0156 0.03999,0.0408 0.095716,0.0559 0.1260268,0.0342 0.1747549,0.11901 0.1475573,0.25674 -0.018235,0.0923 0.00784,0.12909 0.2013588,0.28356 0.2448541,0.19546 0.2729325,0.21205 0.2811496,0.16617 z m 0.8140245,-0.0249 c 0.092352,-0.074 0.1752708,-0.1681 0.1842561,-0.20909 0.00896,-0.041 -0.021934,-0.24514 -0.068716,-0.45368 -0.06155,-0.27437 -0.075859,-0.43643 -0.051773,-0.58636 0.022505,-0.1401 0.016859,-0.22436 -0.017447,-0.26022 -0.0279,-0.0292 -0.04411,-0.0865 -0.036023,-0.12751 0.00809,-0.0409 -0.010702,-0.11629 -0.041759,-0.16742 -0.031055,-0.0511 -0.06202,-0.15916 -0.06881,-0.24011 -0.00679,-0.0809 -0.033928,-0.16398 -0.06031,-0.18454 -0.06293,-0.049 -0.1140616,0.21041 -0.2215462,1.12417 -0.1150205,0.97777 -0.090864,1.23847 0.114776,1.23902 0.054692,1.4e-4 0.1750036,-0.0603 0.2673559,-0.13428 z m -0.8791697,-0.7139 c -0.02082,-0.27849 -0.08384,-0.70953 -0.104621,-0.71565 -0.00992,-0.003 -0.070492,0.0628 -0.1346229,0.14609 l -0.1166032,0.15137 0.1602816,0.29717 c 0.088155,0.16344 0.1714117,0.30019 0.1850144,0.30388 0.013608,0.004 0.018359,-0.0786 0.01056,-0.18287 z m -0.9800032,-1.21362 c 0.015528,-0.018 0.00191,-0.0463 -0.030276,-0.0629 -0.054134,-0.0279 -0.052587,-0.0344 0.020643,-0.0866 0.044352,-0.0316 0.1049649,-0.0388 0.1378288,-0.0163 0.038062,0.0261 0.1186038,7.9e-4 0.2293602,-0.0717 0.093884,-0.0615 0.3027833,-0.17002 0.4642157,-0.24114 0.1614363,-0.0711 0.32136,-0.15357 0.3553867,-0.18323 0.039763,-0.0347 0.1184556,-0.0386 0.2202667,-0.0109 0.1069896,0.029 0.1619112,0.0253 0.1692063,-0.0117 0.030966,-0.15681 -0.024365,-0.51323 -0.1002937,-0.64604 -0.047123,-0.0824 -0.079406,-0.18163 -0.071739,-0.22047 0.022728,-0.1151 -0.071075,-0.2722 -0.1897068,-0.31773 -0.082877,-0.0318 -0.1576178,-0.0165 -0.2979869,0.061 -0.1030489,0.0569 -0.2482345,0.13112 -0.3226356,0.16496 -0.074401,0.0338 -0.2594861,0.17157 -0.4112982,0.30606 -0.1518148,0.13449 -0.3392231,0.26007 -0.4164658,0.27907 -0.077245,0.019 -0.1535425,0.0497 -0.1695612,0.0683 -0.039445,0.0457 -0.00571,0.38208 0.067075,0.66884 0.047609,0.18757 0.080868,0.24414 0.1649862,0.28061 0.057948,0.0251 0.1160172,0.0517 0.1290506,0.0591 0.013031,0.007 0.036403,-0.001 0.051934,-0.0193 z"
         id="path3949"
         inkscape:connector-curvature="0" />
      <path
         d="m -12.246368,118.30242 q -0.946637,0 -1.716333,-0.45125 -0.760848,-0.46107 -1.203201,-1.26547 -0.433507,-0.81422 -0.433507,-1.83444 0,-1.02023 0.433507,-1.82463 0.442353,-0.81422 1.203201,-1.26547 0.769696,-0.46107 1.72518,-0.46107 0.805083,0 1.45092,0.31392 0.654683,0.31391 1.0970367,0.9025 l -0.9200957,0.94175 q -0.628142,-0.80441 -1.557085,-0.80441 -0.575059,0 -1.02626,0.28449 -0.451201,0.27467 -0.707766,0.77497 -0.247718,0.50031 -0.247718,1.13795 0,0.63764 0.247718,1.13794 0.256565,0.5003 0.707766,0.78479 0.451201,0.27467 1.02626,0.27467 0.928943,0 1.557085,-0.81422 l 0.9200957,0.94175 q -0.4423537,0.5984 -1.0970367,0.91231 -0.654684,0.31392 -1.459767,0.31392 z"
         style="font-style:normal;font-variant:normal;font-weight:bold;font-stretch:normal;font-size:50.79999924px;line-height:1.25;font-family:Montserrat;-inkscape-font-specification:'Montserrat, Bold';font-variant-ligatures:normal;font-variant-caps:normal;font-variant-numeric:normal;font-feature-settings:normal;text-align:center;letter-spacing:0px;word-spacing:0px;writing-mode:lr-tb;text-anchor:middle;fill:#d9d9d9;fill-opacity:1;stroke:none;stroke-width:0.04852098"
         id="path859"
         inkscape:connector-curvature="0" />
      <path
         d="m -8.8276659,110.9058 h 1.3801434 v 7.2789 h -1.3801434 z"
         style="font-style:normal;font-variant:normal;font-weight:bold;font-stretch:normal;font-size:50.79999924px;line-height:1.25;font-family:Montserrat;-inkscape-font-specification:'Montserrat, Bold';font-variant-ligatures:normal;font-variant-caps:normal;font-variant-numeric:normal;font-feature-settings:normal;text-align:center;letter-spacing:0px;word-spacing:0px;writing-mode:lr-tb;text-anchor:middle;fill:#d9d9d9;fill-opacity:1;stroke:none;stroke-width:0.04852098"
         id="path861"
         inkscape:connector-curvature="0" />
      <path
         d="m -6.1666325,112.90701 h 1.3801434 v 5.27769 h -1.3801434 z m 0.6900717,-0.73574 q -0.3804242,0 -0.6192951,-0.24525 -0.2388709,-0.24524 -0.2388709,-0.60821 0,-0.36296 0.2388709,-0.60821 0.2388709,-0.24524 0.6192951,-0.24524 0.380424,0 0.6192951,0.23543 0.2388709,0.23544 0.2388709,0.58859 0,0.38259 -0.2388709,0.63764 -0.2388711,0.24525 -0.6192951,0.24525 z"
         style="font-style:normal;font-variant:normal;font-weight:bold;font-stretch:normal;font-size:50.79999924px;line-height:1.25;font-family:Montserrat;-inkscape-font-specification:'Montserrat, Bold';font-variant-ligatures:normal;font-variant-caps:normal;font-variant-numeric:normal;font-feature-settings:normal;text-align:center;letter-spacing:0px;word-spacing:0px;writing-mode:lr-tb;text-anchor:middle;fill:#d9d9d9;fill-opacity:1;stroke:none;stroke-width:0.04852098"
         id="path863"
         inkscape:connector-curvature="0" />
      <path
         d="m 2.5900341,112.82853 q 0.8935543,0 1.4155317,0.58859 0.5308238,0.57878 0.5308238,1.74615 v 3.02143 H 3.1562467 v -2.78599 q 0,-0.62783 -0.2388708,-0.93194 -0.230024,-0.31391 -0.6635306,-0.31391 -0.4865888,0 -0.7696951,0.35315 -0.2831066,0.34335 -0.2831066,1.03003 v 2.64866 h -1.38014337 v -2.78599 q 0,-1.24585 -0.90240143,-1.24585 -0.477742,0 -0.7608482,0.35315 -0.2831063,0.34335 -0.2831063,1.03003 v 2.64866 h -1.3801434 v -5.27769 h 1.3182139 v 0.60821 q 0.2654121,-0.33354 0.6458363,-0.51012 0.3892712,-0.17657 0.84931913,-0.17657 0.50428313,0 0.91124828,0.22562 0.40696541,0.21582 0.65468341,0.63764 0.29195338,-0.41201 0.73430708,-0.63764 0.4512009,-0.22562 0.9820251,-0.22562 z"
         style="font-style:normal;font-variant:normal;font-weight:bold;font-stretch:normal;font-size:50.79999924px;line-height:1.25;font-family:Montserrat;-inkscape-font-specification:'Montserrat, Bold';font-variant-ligatures:normal;font-variant-caps:normal;font-variant-numeric:normal;font-feature-settings:normal;text-align:center;letter-spacing:0px;word-spacing:0px;writing-mode:lr-tb;text-anchor:middle;fill:#d9d9d9;fill-opacity:1;stroke:none;stroke-width:0.04852098"
         id="path865"
         inkscape:connector-curvature="0" />
      <path
         d="m 8.5868302,112.82853 q 0.6635305,0 1.2032019,0.34334 0.5485189,0.33354 0.8581659,0.95156 0.309648,0.60821 0.309648,1.42242 0,0.81422 -0.309648,1.43224 -0.309647,0.60821 -0.8581659,0.95156 -0.5396714,0.33353 -1.2032019,0.33353 -0.9820251,0 -1.4951551,-0.68669 v 0.60821 h -1.318214 v -7.2789 h 1.3801434 v 2.56037 q 0.5219774,-0.63764 1.4332257,-0.63764 z m -0.2388709,4.17899 q 0.5308243,0 0.8670131,-0.39239 0.345036,-0.40221 0.345036,-1.06928 0,-0.66707 -0.345036,-1.05946 -0.3361888,-0.4022 -0.8670131,-0.4022 -0.5308243,0 -0.8758602,0.4022 -0.3361889,0.39239 -0.3361889,1.05946 0,0.66707 0.3361889,1.06928 0.3450359,0.39239 0.8758602,0.39239 z"
         style="font-style:normal;font-variant:normal;font-weight:bold;font-stretch:normal;font-size:50.79999924px;line-height:1.25;font-family:Montserrat;-inkscape-font-specification:'Montserrat, Bold';font-variant-ligatures:normal;font-variant-caps:normal;font-variant-numeric:normal;font-feature-settings:normal;text-align:center;letter-spacing:0px;word-spacing:0px;writing-mode:lr-tb;text-anchor:middle;fill:#d9d9d9;fill-opacity:1;stroke:none;stroke-width:0.04852098"
         id="path867"
         inkscape:connector-curvature="0" />
      <path
         d="m 11.873102,112.90701 h 1.380143 v 5.27769 h -1.380143 z m 0.690071,-0.73574 q -0.380424,0 -0.619295,-0.24525 -0.238871,-0.24524 -0.238871,-0.60821 0,-0.36296 0.238871,-0.60821 0.238871,-0.24524 0.619295,-0.24524 0.380424,0 0.619296,0.23543 0.23887,0.23544 0.23887,0.58859 0,0.38259 -0.23887,0.63764 -0.238872,0.24525 -0.619296,0.24525 z"
         style="font-style:normal;font-variant:normal;font-weight:bold;font-stretch:normal;font-size:50.79999924px;line-height:1.25;font-family:Montserrat;-inkscape-font-specification:'Montserrat, Bold';font-variant-ligatures:normal;font-variant-caps:normal;font-variant-numeric:normal;font-feature-settings:normal;text-align:center;letter-spacing:0px;word-spacing:0px;writing-mode:lr-tb;text-anchor:middle;fill:#d9d9d9;fill-opacity:1;stroke:none;stroke-width:0.04852098"
         id="path869"
         inkscape:connector-curvature="0" />
      <path
         d="m 17.427131,112.82853 q 0.884706,0 1.424379,0.58859 0.548516,0.58859 0.548516,1.74615 v 3.02143 h -1.380141 v -2.78599 q 0,-0.62783 -0.247719,-0.93194 -0.247719,-0.31391 -0.716613,-0.31391 -0.521978,0 -0.831625,0.36296 -0.309647,0.35315 -0.309647,1.05946 v 2.60942 h -1.380144 v -5.27769 h 1.318215 v 0.61802 q 0.274259,-0.33354 0.681223,-0.51012 0.406966,-0.18638 0.893556,-0.18638 z"
         style="font-style:normal;font-variant:normal;font-weight:bold;font-stretch:normal;font-size:50.79999924px;line-height:1.25;font-family:Montserrat;-inkscape-font-specification:'Montserrat, Bold';font-variant-ligatures:normal;font-variant-caps:normal;font-variant-numeric:normal;font-feature-settings:normal;text-align:center;letter-spacing:0px;word-spacing:0px;writing-mode:lr-tb;text-anchor:middle;fill:#d9d9d9;fill-opacity:1;stroke:none;stroke-width:0.04852098"
         id="path871"
         inkscape:connector-curvature="0" />
      <path
         d="m 25.613019,112.90701 v 4.39481 q 0,1.45185 -0.681222,2.15816 -0.681226,0.70631 -1.990593,0.70631 -0.690071,0 -1.309368,-0.18639 -0.619294,-0.18638 -1.02626,-0.53954 l 0.548521,-1.0987 q 0.300799,0.27467 0.760846,0.43163 0.46005,0.16677 0.920097,0.16677 0.716613,0 1.052801,-0.36296 0.345035,-0.35316 0.345035,-1.07909 v -0.22562 q -0.539671,0.65726 -1.504,0.65726 -0.654685,0 -1.203204,-0.31392 -0.53967,-0.32372 -0.858165,-0.9025 -0.318495,-0.57879 -0.318495,-1.33414 0,-0.75536 0.318495,-1.33414 0.318495,-0.57878 0.858165,-0.8927 0.548519,-0.32372 1.203204,-0.32372 1.035105,0 1.574779,0.75536 v -0.67688 z m -2.609884,3.76698 q 0.548518,0 0.893553,-0.35316 0.353883,-0.36296 0.353883,-0.94174 0,-0.57878 -0.353883,-0.93194 -0.345035,-0.36296 -0.893553,-0.36296 -0.548518,0 -0.902401,0.36296 -0.353883,0.35316 -0.353883,0.93194 0,0.57878 0.353883,0.94174 0.353883,0.35316 0.902401,0.35316 z"
         style="font-style:normal;font-variant:normal;font-weight:bold;font-stretch:normal;font-size:50.79999924px;line-height:1.25;font-family:Montserrat;-inkscape-font-specification:'Montserrat, Bold';font-variant-ligatures:normal;font-variant-caps:normal;font-variant-numeric:normal;font-feature-settings:normal;text-align:center;letter-spacing:0px;word-spacing:0px;writing-mode:lr-tb;text-anchor:middle;fill:#d9d9d9;fill-opacity:1;stroke:none;stroke-width:0.04852098"
         id="path873"
         inkscape:connector-curvature="0" />
      <g
         id="text842"
         style="font-style:normal;font-variant:normal;font-weight:bold;font-stretch:normal;font-size:50.79999924px;line-height:1.25;font-family:Montserrat;-inkscape-font-specification:'Montserrat, Bold';font-variant-ligatures:normal;font-variant-caps:normal;font-variant-numeric:normal;font-feature-settings:normal;text-align:center;letter-spacing:0px;word-spacing:0px;writing-mode:lr-tb;text-anchor:middle;fill:#d9d9d9;fill-opacity:1;stroke:none;stroke-width:0.26458332"
         aria-label="Finland"
         transform="matrix(0.17415498,0,0,0.19310715,-12.882694,105.79366)">
        <path
           id="path844"
           style="font-style:normal;font-variant:normal;font-weight:bold;font-stretch:normal;font-size:50.79999924px;font-family:Montserrat;-inkscape-font-specification:'Montserrat, Bold';font-variant-ligatures:normal;font-variant-caps:normal;font-variant-numeric:normal;font-feature-settings:normal;text-align:center;writing-mode:lr-tb;text-anchor:middle;fill:#d9d9d9;fill-opacity:1;stroke-width:0.26458332"
           d="m 62.917586,75.72291 v 9.398 h 16.4592 v 6.603999 h -16.4592 v 12.954001 h -8.229599 v -35.56 h 26.873199 v 6.604 z"
           inkscape:connector-curvature="0" />
        <path
           id="path846"
           style="font-style:normal;font-variant:normal;font-weight:bold;font-stretch:normal;font-size:50.79999924px;font-family:Montserrat;-inkscape-font-specification:'Montserrat, Bold';font-variant-ligatures:normal;font-variant-caps:normal;font-variant-numeric:normal;font-feature-settings:normal;text-align:center;writing-mode:lr-tb;text-anchor:middle;fill:#d9d9d9;fill-opacity:1;stroke-width:0.26458332"
           d="m 86.077623,77.34851 h 7.9248 v 27.3304 h -7.9248 z m 3.9624,-3.81 q -2.1844,0 -3.556,-1.27 -1.3716,-1.27 -1.3716,-3.1496 0,-1.8796 1.3716,-3.1496 1.3716,-1.27 3.556,-1.27 2.1844,0 3.556,1.2192 1.3716,1.2192 1.3716,3.048 0,1.9812 -1.3716,3.302 -1.3716,1.27 -3.556,1.27 z"
           inkscape:connector-curvature="0" />
        <path
           id="path848"
           style="font-style:normal;font-variant:normal;font-weight:bold;font-stretch:normal;font-size:50.79999924px;font-family:Montserrat;-inkscape-font-specification:'Montserrat, Bold';font-variant-ligatures:normal;font-variant-caps:normal;font-variant-numeric:normal;font-feature-settings:normal;text-align:center;writing-mode:lr-tb;text-anchor:middle;fill:#d9d9d9;fill-opacity:1;stroke-width:0.26458332"
           d="m 117.96891,76.94211 q 5.08,0 8.1788,3.048 3.1496,3.048 3.1496,9.0424 v 15.6464 h -7.9248 v -14.4272 q 0,-3.2512 -1.4224,-4.826 -1.4224,-1.6256 -4.1148,-1.6256 -2.9972,0 -4.7752,1.8796 -1.778,1.8288 -1.778,5.4864 v 13.5128 h -7.9248 v -27.3304 h 7.5692 v 3.2004 q 1.5748,-1.7272 3.9116,-2.6416 2.3368,-0.9652 5.1308,-0.9652 z"
           inkscape:connector-curvature="0" />
        <path
           id="path850"
           style="font-style:normal;font-variant:normal;font-weight:bold;font-stretch:normal;font-size:50.79999924px;font-family:Montserrat;-inkscape-font-specification:'Montserrat, Bold';font-variant-ligatures:normal;font-variant-caps:normal;font-variant-numeric:normal;font-feature-settings:normal;text-align:center;writing-mode:lr-tb;text-anchor:middle;fill:#d9d9d9;fill-opacity:1;stroke-width:0.26458332"
           d="m 136.48075,66.98531 h 7.9248 v 37.6936 h -7.9248 z"
           inkscape:connector-curvature="0" />
        <path
           id="path852"
           style="font-style:normal;font-variant:normal;font-weight:bold;font-stretch:normal;font-size:50.79999924px;font-family:Montserrat;-inkscape-font-specification:'Montserrat, Bold';font-variant-ligatures:normal;font-variant-caps:normal;font-variant-numeric:normal;font-feature-settings:normal;text-align:center;writing-mode:lr-tb;text-anchor:middle;fill:#d9d9d9;fill-opacity:1;stroke-width:0.26458332"
           d="m 162.78403,76.94211 q 6.35,0 9.7536,3.048 3.4036,2.9972 3.4036,9.0932 v 15.5956 h -7.4168 v -3.4036 q -2.2352,3.81 -8.3312,3.81 -3.1496,0 -5.4864,-1.0668 -2.286,-1.0668 -3.50519,-2.9464 -1.2192,-1.879601 -1.2192,-4.267201 0,-3.81 2.84479,-5.994399 2.8956,-2.1844 8.89,-2.1844 h 6.2992 q 0,-2.5908 -1.5748,-3.9624 -1.5748,-1.4224 -4.7244,-1.4224 -2.1844,0 -4.318,0.7112 -2.0828,0.6604 -3.556,1.8288 l -2.84479,-5.5372 q 2.23519,-1.5748 5.33399,-2.4384 3.1496,-0.8636 6.4516,-0.8636 z m -0.6096,22.809199 q 2.032,0 3.6068,-0.9144 1.5748,-0.9652 2.2352,-2.794 v -2.794 h -5.4356 q -4.8768,0 -4.8768,3.2004 0,1.524 1.1684,2.4384 1.2192,0.8636 3.302,0.8636 z"
           inkscape:connector-curvature="0" />
        <path
           id="path854"
           style="font-style:normal;font-variant:normal;font-weight:bold;font-stretch:normal;font-size:50.79999924px;font-family:Montserrat;-inkscape-font-specification:'Montserrat, Bold';font-variant-ligatures:normal;font-variant-caps:normal;font-variant-numeric:normal;font-feature-settings:normal;text-align:center;writing-mode:lr-tb;text-anchor:middle;fill:#d9d9d9;fill-opacity:1;stroke-width:0.26458332"
           d="m 199.72516,76.94211 q 5.08,0 8.1788,3.048 3.1496,3.048 3.1496,9.0424 v 15.6464 h -7.9248 v -14.4272 q 0,-3.2512 -1.4224,-4.826 -1.4224,-1.6256 -4.1148,-1.6256 -2.9972,0 -4.7752,1.8796 -1.778,1.8288 -1.778,5.4864 v 13.5128 h -7.9248 v -27.3304 h 7.5692 v 3.2004 q 1.5748,-1.7272 3.9116,-2.6416 2.3368,-0.9652 5.1308,-0.9652 z"
           inkscape:connector-curvature="0" />
        <path
           id="path856"
           style="font-style:normal;font-variant:normal;font-weight:bold;font-stretch:normal;font-size:50.79999924px;font-family:Montserrat;-inkscape-font-specification:'Montserrat, Bold';font-variant-ligatures:normal;font-variant-caps:normal;font-variant-numeric:normal;font-feature-settings:normal;text-align:center;writing-mode:lr-tb;text-anchor:middle;fill:#d9d9d9;fill-opacity:1;stroke-width:0.26458332"
           d="m 246.37304,66.98531 v 37.6936 h -7.5692 v -3.1496 q -2.9464,3.556 -8.5344,3.556 -3.8608,0 -7.0104,-1.7272 -3.0988,-1.7272 -4.8768,-4.927601 -1.778,-3.2004 -1.778,-7.416799 0,-4.2164 1.778,-7.4168 1.778,-3.2004 4.8768,-4.9276 3.1496,-1.7272 7.0104,-1.7272 5.2324,0 8.1788,3.302 v -13.2588 z m -14.732,31.597599 q 2.9972,0 4.9784,-2.032 1.9812,-2.0828 1.9812,-5.537199 0,-3.4544 -1.9812,-5.4864 -1.9812,-2.0828 -4.9784,-2.0828 -3.048,0 -5.0292,2.0828 -1.9812,2.032 -1.9812,5.4864 0,3.454399 1.9812,5.537199 1.9812,2.032 5.0292,2.032 z"
           inkscape:connector-curvature="0" />
      </g>
    </g>
  </g>
</svg>
