<?xml version="1.0" encoding="UTF-8" standalone="no"?>
<!-- Generator: Adobe Illustrator 19.0.0, SVG Export Plug-In . SVG Version: 6.00 Build 0)  -->

<svg
   xmlns:dc="http://purl.org/dc/elements/1.1/"
   xmlns:cc="http://creativecommons.org/ns#"
   xmlns:rdf="http://www.w3.org/1999/02/22-rdf-syntax-ns#"
   xmlns:svg="http://www.w3.org/2000/svg"
   xmlns="http://www.w3.org/2000/svg"
   xmlns:sodipodi="http://sodipodi.sourceforge.net/DTD/sodipodi-0.dtd"
   xmlns:inkscape="http://www.inkscape.org/namespaces/inkscape"
   version="1.1"
   id="Capa_1"
   x="0px"
   y="0px"
   viewBox="0 0 32 22"
   xml:space="preserve"
   sodipodi:docname="mail.svg"
   width="32"
   height="22"
   inkscape:version="0.92.3 (2405546, 2018-03-11)"><metadata
   id="metadata1646"><rdf:RDF><cc:Work
       rdf:about=""><dc:format>image/svg+xml</dc:format><dc:type
         rdf:resource="http://purl.org/dc/dcmitype/StillImage" /><dc:title></dc:title></cc:Work></rdf:RDF></metadata><defs
   id="defs1644" /><sodipodi:namedview
   pagecolor="#ffffff"
   bordercolor="#666666"
   borderopacity="1"
   objecttolerance="10"
   gridtolerance="10"
   guidetolerance="10"
   inkscape:pageopacity="0"
   inkscape:pageshadow="2"
   inkscape:window-width="1920"
   inkscape:window-height="1017"
   id="namedview1642"
   showgrid="false"
   fit-margin-top="0"
   fit-margin-left="0"
   fit-margin-right="0"
   fit-margin-bottom="0"
   inkscape:zoom="0.4609375"
   inkscape:cx="256"
   inkscape:cy="176"
   inkscape:window-x="1912"
   inkscape:window-y="-8"
   inkscape:window-maximized="1"
   inkscape:current-layer="Capa_1" />
<g
   id="g1591"
   transform="matrix(0.0625,0,0,0.0625,0,-5)">
	<g
   id="g1589">
		<polygon
   points="339.392,258.624 512,367.744 512,144.896 "
   id="polygon1587" />
	</g>
</g>
<g
   id="g1597"
   transform="matrix(0.0625,0,0,0.0625,0,-5)">
	<g
   id="g1595">
		<polygon
   points="0,144.896 0,367.744 172.608,258.624 "
   id="polygon1593" />
	</g>
</g>
<g
   id="g1603"
   transform="matrix(0.0625,0,0,0.0625,0,-5)">
	<g
   id="g1601">
		<path
   d="M 480,80 H 32 C 16.032,80 3.36,91.904 0.96,107.232 L 256,275.264 511.04,107.232 C 508.64,91.904 495.968,80 480,80 Z"
   id="path1599"
   inkscape:connector-curvature="0" />
	</g>
</g>
<g
   id="g1609"
   transform="matrix(0.0625,0,0,0.0625,0,-5)">
	<g
   id="g1607">
		<path
   d="m 310.08,277.952 -45.28,29.824 c -2.688,1.76 -5.728,2.624 -8.8,2.624 -3.072,0 -6.112,-0.864 -8.8,-2.624 L 201.92,277.92 1.024,404.992 C 3.488,420.192 16.096,432 32,432 h 448 c 15.904,0 28.512,-11.808 30.976,-27.008 z"
   id="path1605"
   inkscape:connector-curvature="0" />
	</g>
</g>
<g
   id="g1611"
   transform="translate(0,-410)">
</g>
<g
   id="g1613"
   transform="translate(0,-410)">
</g>
<g
   id="g1615"
   transform="translate(0,-410)">
</g>
<g
   id="g1617"
   transform="translate(0,-410)">
</g>
<g
   id="g1619"
   transform="translate(0,-410)">
</g>
<g
   id="g1621"
   transform="translate(0,-410)">
</g>
<g
   id="g1623"
   transform="translate(0,-410)">
</g>
<g
   id="g1625"
   transform="translate(0,-410)">
</g>
<g
   id="g1627"
   transform="translate(0,-410)">
</g>
<g
   id="g1629"
   transform="translate(0,-410)">
</g>
<g
   id="g1631"
   transform="translate(0,-410)">
</g>
<g
   id="g1633"
   transform="translate(0,-410)">
</g>
<g
   id="g1635"
   transform="translate(0,-410)">
</g>
<g
   id="g1637"
   transform="translate(0,-410)">
</g>
<g
   id="g1639"
   transform="translate(0,-410)">
</g>
</svg>