<?xml version="1.0" encoding="UTF-8" standalone="no"?>
<svg
   xmlns:dc="http://purl.org/dc/elements/1.1/"
   xmlns:cc="http://creativecommons.org/ns#"
   xmlns:rdf="http://www.w3.org/1999/02/22-rdf-syntax-ns#"
   xmlns:svg="http://www.w3.org/2000/svg"
   xmlns="http://www.w3.org/2000/svg"
   xmlns:sodipodi="http://sodipodi.sourceforge.net/DTD/sodipodi-0.dtd"
   xmlns:inkscape="http://www.inkscape.org/namespaces/inkscape"
   height="31.997791"
   viewBox="0 0 3.625 3.6247498"
   width="32"
   version="1.1"
   id="svg975"
   sodipodi:docname="phone.svg"
   inkscape:version="0.92.3 (2405546, 2018-03-11)">
  <metadata
     id="metadata981">
    <rdf:RDF>
      <cc:Work
         rdf:about="">
        <dc:format>image/svg+xml</dc:format>
        <dc:type
           rdf:resource="http://purl.org/dc/dcmitype/StillImage" />
        <dc:title></dc:title>
      </cc:Work>
    </rdf:RDF>
  </metadata>
  <defs
     id="defs979" />
  <sodipodi:namedview
     pagecolor="#ffffff"
     bordercolor="#666666"
     borderopacity="1"
     objecttolerance="10"
     gridtolerance="10"
     guidetolerance="10"
     inkscape:pageopacity="0"
     inkscape:pageshadow="2"
     inkscape:window-width="1920"
     inkscape:window-height="1017"
     id="namedview977"
     showgrid="false"
     fit-margin-top="0"
     fit-margin-left="0"
     fit-margin-right="0"
     fit-margin-bottom="0"
     inkscape:zoom="0.23046875"
     inkscape:cx="196.85701"
     inkscape:cy="390.50125"
     inkscape:window-x="1912"
     inkscape:window-y="-8"
     inkscape:window-maximized="1"
     inkscape:current-layer="svg975" />
  <g
     id="Page-1"
     transform="matrix(0.06249634,0,0,0.06249634,2.1217509e-4,0)"
     style="fill:none;fill-rule:evenodd">
    <g
       id="003---Call"
       transform="translate(-1)"
       style="fill:#000000;fill-rule:nonzero">
      <path
         id="Shape"
         d="M 25.017,33.983 C 19.481,28.447 18.231,22.911 17.949,20.693 17.8702,20.079717 18.081248,19.464686 18.52,19.029 L 23,14.551 c 0.659014,-0.658607 0.775963,-1.685024 0.282,-2.475 L 16.149,1 C 15.602516,0.12524866 14.480438,-0.19045777 13.558,0.271 L 2.107,5.664 c -0.7459412,0.367308 -1.18469338,1.159854 -1.1,1.987 0.6,5.7 3.085,19.712 16.855,33.483 13.77,13.771 27.78,16.255 33.483,16.855 0.827146,0.08469 1.619692,-0.354059 1.987,-1.1 L 58.725,45.438 C 59.184731,44.517553 58.871114,43.398482 58,42.851 L 46.924,35.72 C 46.134474,35.225521 45.108103,35.341636 44.449,36 l -4.478,4.48 c -0.435686,0.438752 -1.050717,0.649799 -1.664,0.571 -2.218,-0.282 -7.754,-1.532 -13.29,-7.068 z"
         inkscape:connector-curvature="0" />
      <path
         id="path969"
         d="m 47,31 c -1.104569,0 -2,-0.895431 -2,-2 -0.0094,-8.280388 -6.719612,-14.990631 -15,-15 -1.10457,0 -2,-0.89543 -2,-2 0,-1.104569 0.89543,-2 2,-2 10.488613,0.01157 18.988427,8.511387 19,19 0,1.104569 -0.895431,2 -2,2 z"
         inkscape:connector-curvature="0" />
      <path
         id="path971"
         d="M 57,31 C 55.895431,31 55,30.104569 55,29 54.984569,15.199278 43.800722,4.0154309 30,4 28.89543,4 28,3.1045695 28,2 28,0.8954305 28.89543,0 30,0 46.008947,0.01763587 58.982364,12.991053 59,29 59,29.530433 58.789286,30.039141 58.414214,30.414214 58.039141,30.789286 57.530433,31 57,31 Z"
         inkscape:connector-curvature="0" />
    </g>
  </g>
</svg>
