<?xml version="1.0" encoding="UTF-8" standalone="no"?>
<!-- Generator: Adobe Illustrator 19.0.0, SVG Export Plug-In . SVG Version: 6.00 Build 0)  -->

<svg
   xmlns:dc="http://purl.org/dc/elements/1.1/"
   xmlns:cc="http://creativecommons.org/ns#"
   xmlns:rdf="http://www.w3.org/1999/02/22-rdf-syntax-ns#"
   xmlns:svg="http://www.w3.org/2000/svg"
   xmlns="http://www.w3.org/2000/svg"
   xmlns:sodipodi="http://sodipodi.sourceforge.net/DTD/sodipodi-0.dtd"
   xmlns:inkscape="http://www.inkscape.org/namespaces/inkscape"
   version="1.1"
   id="Capa_1"
   x="0px"
   y="0px"
   viewBox="0 0 16.999998 17.000006"
   xml:space="preserve"
   sodipodi:docname="search.svg"
   inkscape:version="0.92.3 (2405546, 2018-03-11)"
   width="16.999998"
   height="17.000006"><metadata
   id="metadata899"><rdf:RDF><cc:Work
       rdf:about=""><dc:format>image/svg+xml</dc:format><dc:type
         rdf:resource="http://purl.org/dc/dcmitype/StillImage" /><dc:title></dc:title></cc:Work></rdf:RDF></metadata><defs
   id="defs897" /><sodipodi:namedview
   pagecolor="#ffffff"
   bordercolor="#666666"
   borderopacity="1"
   objecttolerance="10"
   gridtolerance="10"
   guidetolerance="10"
   inkscape:pageopacity="0"
   inkscape:pageshadow="2"
   inkscape:window-width="1920"
   inkscape:window-height="1017"
   id="namedview895"
   showgrid="false"
   inkscape:zoom="1"
   inkscape:cx="313.25071"
   inkscape:cy="-262.50704"
   inkscape:window-x="1912"
   inkscape:window-y="-8"
   inkscape:window-maximized="1"
   inkscape:current-layer="g860"
   inkscape:snap-nodes="false"
   inkscape:snap-global="false"
   fit-margin-top="0"
   fit-margin-left="0"
   fit-margin-right="0"
   fit-margin-bottom="0" />
<g
   transform="translate(0.92588431,0.76739)"
   id="g862">
	<g
   id="g860"
   style="fill:#000000;fill-opacity:1">
		<g
   id="g4605"
   transform="matrix(1,0,0,-1,0,510.00025)"><path
     style="fill:#4e4e4e;fill-opacity:1;stroke-width:0.03321886"
     id="path858"
     d="m 15.866436,494.97683 -5.4332,5.42805 c 0.87756,1.09199 1.40297,2.47851 1.40297,3.98776 0,3.52063 -2.8570803,6.375 -6.3810503,6.375 -3.52396,0 -6.38104001,-2.85437 -6.38104001,-6.375 0,-3.52063 2.85708001,-6.37499 6.38104001,-6.37499 1.50244,0 2.8834,0.51913 3.9736303,1.38723 l 5.43493,-5.42978 c 0.27687,-0.27662 0.72581,-0.27662 1.00268,0 0.27695,0.27664 0.27695,0.72512 4e-5,1.00173 z m -15.37427028,9.41581 c 0,2.73822 2.22222998,4.95833 4.96302998,4.95833 2.74079,0 4.9630503,-2.22011 4.9630503,-4.95833 0,-1.37308 -0.55887,-2.61584 -1.4616503,-3.51375 -7e-5,-7e-5 -1.7e-4,-1.4e-4 -2.4e-4,-2.4e-4 -3e-5,-2e-5 -10e-5,-9e-5 -1.3e-4,-1.6e-4 -0.8975,-0.89247 -2.13479,-1.4442 -3.501,-1.4442 -2.74083,3e-5 -4.96305998,2.22012 -4.96305998,4.95835 z"
     inkscape:connector-curvature="0" /></g>
	</g>
</g>
<g
   id="g864"
   transform="translate(-0.07411569,-0.23261)">
</g>
<g
   id="g866"
   transform="translate(-0.07411569,-0.23261)">
</g>
<g
   id="g868"
   transform="translate(-0.07411569,-0.23261)">
</g>
<g
   id="g870"
   transform="translate(-0.07411569,-0.23261)">
</g>
<g
   id="g872"
   transform="translate(-0.07411569,-0.23261)">
</g>
<g
   id="g874"
   transform="translate(-0.07411569,-0.23261)">
</g>
<g
   id="g876"
   transform="translate(-0.07411569,-0.23261)">
</g>
<g
   id="g878"
   transform="translate(-0.07411569,-0.23261)">
</g>
<g
   id="g880"
   transform="translate(-0.07411569,-0.23261)">
</g>
<g
   id="g882"
   transform="translate(-0.07411569,-0.23261)">
</g>
<g
   id="g884"
   transform="translate(-0.07411569,-0.23261)">
</g>
<g
   id="g886"
   transform="translate(-0.07411569,-0.23261)">
</g>
<g
   id="g888"
   transform="translate(-0.07411569,-0.23261)">
</g>
<g
   id="g890"
   transform="translate(-0.07411569,-0.23261)">
</g>
<g
   id="g892"
   transform="translate(-0.07411569,-0.23261)">
</g>
</svg>